<?xml version="1.0" encoding="UTF-8"?>
<svg width="40px" height="24px" viewBox="0 0 40 24" version="1.1" xmlns="http://www.w3.org/2000/svg" xmlns:xlink="http://www.w3.org/1999/xlink">
    <!-- Generator: Sketch 55.2 (78181) - https://sketchapp.com -->
    <title>amex</title>
    <desc>Created with Sketch.</desc>
    <g id="05-cart-&amp;-payment" stroke="none" stroke-width="1" fill="none" fill-rule="evenodd">
        <g id="05-11-00-checkout-pickup" transform="translate(-716.000000, -2357.000000)">
            <g id="payment" transform="translate(135.000000, 2125.000000)">
                <g id="active-contetn" transform="translate(273.000000, 87.000000)">
                    <g id="cards" transform="translate(214.000000, 145.000000)">
                        <g id="amex" transform="translate(94.000000, 0.000000)">
                            <rect id="Rectangle-Copy-3" fill="#0070CF" fill-rule="nonzero" x="0" y="0" width="39" height="24" rx="1.5"></rect>
                            <g id="Group-6" transform="translate(0.000000, 4.000000)" fill="#FFFFFF">
                                <path d="M7.56578947,14.1795084 L7.56578947,8.34819154 L14.1136879,8.34819154 L14.8162065,9.2117555 L15.5419555,8.34819154 L39.4736842,8.34819154 L39.4736842,13.7773504 C39.4736842,13.7773504 38.6876548,14.1736774 37.9687969,14.1795084 L24.8083772,14.1795084 L24.016315,13.2602859 L24.016315,14.1795084 L21.4207875,14.1795084 L21.4207875,12.6103677 C21.4207875,12.6103677 21.0662345,12.8294013 20.299715,12.8294013 L19.4162608,12.8294013 L19.4162608,14.1795084 L15.486413,14.1795084 L14.7848981,13.2974239 L14.0726122,14.1795084 L7.56578947,14.1795084 Z M8.38815789,13.5490958 L12.1710526,13.5490958 L12.1710526,12.5910335 L9.55963507,12.5910335 L9.55963507,11.8071661 L12.1100382,11.8071661 L12.1100382,10.878137 L9.55963507,10.878137 L9.55963507,10.1233027 L12.1710526,10.1233027 L12.1710526,9.13620734 L8.38815789,9.13620734 L8.38815789,13.5490958 Z M26.9736842,13.5490958 L30.7565789,13.5490958 L30.7565789,12.5910335 L28.1451613,12.5910335 L28.1451613,11.8071661 L30.6833616,11.8071661 L30.6833616,10.878137 L28.1451613,10.878137 L28.1451613,10.1233027 L30.7565789,10.1233027 L30.7565789,9.13620734 L26.9736842,9.13620734 L26.9736842,13.5490958 Z M12.3792509,13.5490958 L13.814563,13.5490958 L14.8753631,12.190023 L15.9625869,13.5490958 L17.4185803,13.5490958 L15.5787609,11.3426516 L17.4342105,9.13620734 L16.0350189,9.13620734 L14.9114833,10.5170465 L13.79175,9.13620734 L12.3355263,9.13620734 L14.2156898,11.369867 L12.3792509,13.5490958 Z M17.4342105,9.13620734 L17.4342105,13.5490958 L18.6383716,13.5490958 L18.6383716,12.1555509 L19.8734088,12.1555509 C20.9184249,12.1555509 21.7105263,11.6342567 21.7105263,10.6204756 C21.7105263,9.78066371 21.0892771,9.13620734 20.0258588,9.13620734 L17.4342105,9.13620734 Z M18.6383716,10.1341867 L19.93902,10.1341867 C20.2766236,10.1341867 20.5179436,10.3287482 20.5179436,10.6422495 C20.5179436,10.9367654 20.2778419,11.1503123 19.9351607,11.1503123 L18.6383716,11.1503123 L18.6383716,10.1341867 Z M22.2039474,9.13620734 L22.2039474,13.5490958 L23.3597693,13.5490958 L23.3597693,11.9813572 L23.8464309,11.9813572 L25.2322767,13.5490958 L26.6447368,13.5490958 L25.1239184,11.9232948 C25.7480712,11.8730146 26.3919005,11.3617009 26.3919005,10.5678535 C26.3919005,9.63923075 25.628282,9.13620734 24.7760313,9.13620734 L22.2039474,9.13620734 Z M23.3597693,10.1233027 L24.6809801,10.1233027 C24.9979203,10.1233027 25.2284745,10.3599366 25.2284745,10.5878135 C25.2284745,10.8809895 24.9297523,11.0523281 24.6980891,11.0523281 L23.3597693,11.0523281 L23.3597693,10.1233027 Z M31.2320793,13.5490958 L33.6919614,13.5490958 C34.7082973,13.5490958 35.1973684,12.9167349 35.1973684,12.1446651 C35.1973684,11.4265258 34.7584753,10.878137 33.7470233,10.878137 L32.6535694,10.878137 C32.3696932,10.878137 32.2283372,10.6763993 32.2283372,10.4934625 C32.2283372,10.3154819 32.3427253,10.1291055 32.7143169,10.1291055 L34.6582348,10.1291055 L35.1442144,9.13620734 L32.8965593,9.13620734 C31.5482724,9.13620734 31.0855263,9.81855484 31.0855263,10.5261233 C31.0855263,11.3194251 31.5908415,11.8478125 32.4981737,11.8478125 L33.5420009,11.8478125 C33.8842528,11.8478125 34.0317771,12.0353629 34.0317771,12.2208737 C34.0317771,12.4144942 33.8837863,12.5910335 33.5420009,12.5910335 L31.2320793,12.5910335 L31.2320793,13.5490958 Z M35.5083955,13.5490958 L37.9682756,13.5490958 C38.9846139,13.5490958 39.4736842,12.9167349 39.4736842,12.1446651 C39.4736842,11.4265258 39.0347922,10.878137 38.0233399,10.878137 L36.9298852,10.878137 C36.646009,10.878137 36.5046534,10.6763993 36.5046534,10.4934625 C36.5046534,10.3154819 36.6190415,10.1291055 36.9906327,10.1291055 L38.9345498,10.1291055 L39.4205294,9.13620734 L37.1728751,9.13620734 C35.8245882,9.13620734 35.3618421,9.81855484 35.3618421,10.5261233 C35.3618421,11.3194251 35.8671577,11.8478125 36.7744899,11.8478125 L37.8183155,11.8478125 C38.1605674,11.8478125 38.3080944,12.0353629 38.3080944,12.2208737 C38.3080944,12.4144942 38.1601029,12.5910335 37.8183155,12.5910335 L35.5083955,12.5910335 L35.5083955,13.5490958 Z" id="Combined-Shape"></path>
                                <path d="M-2.20268248e-13,3.87164055 L1.47286886,0.62563678 L4.02004174,0.62563678 L4.85591181,2.4439166 L4.85591181,0.62563678 L8.02228252,0.62563678 L8.5198764,1.93983553 L9.00227685,0.62563678 L23.2159987,0.62563678 L23.2159987,1.28632745 C23.2159987,1.28632745 23.9632015,0.62563678 25.191182,0.62563678 L29.8030147,0.640873263 L30.6244551,2.43535632 L30.6244551,0.62563678 L33.274239,0.62563678 L34.0035377,1.6564228 L34.0035377,0.62563678 L36.6776316,0.62563678 L36.6776316,6.45695364 L34.0035377,6.45695364 L33.3046266,5.42282766 L33.3046266,6.45695364 L29.4115065,6.45695364 L29.0199984,5.53773055 L27.9733965,5.53773055 L27.5882607,6.45695364 L24.9480824,6.45695364 C23.8914439,6.45695364 23.2159987,5.80975314 23.2159987,5.80975314 L23.2159987,6.45695364 L19.2352453,6.45695364 L18.4451717,5.53773055 L18.4451717,6.45695364 L3.64269347,6.45695364 L3.25145515,5.53773055 L2.20819065,5.53773055 L1.81971742,6.45695364 L-2.20268248e-13,6.45695364 L-2.20268248e-13,3.87164055 Z M1.96855154,1.41365257 L-1.89182003e-13,5.82654101 L1.28162862,5.82654101 L1.64485085,4.94288027 L3.75643287,4.94288027 L4.11777323,5.82654101 L5.42763158,5.82654101 L3.46096177,1.41365257 L1.96855154,1.41365257 Z M2.69687777,2.44066508 L3.34051538,3.98481721 L2.05135847,3.98481721 L2.69687777,2.44066508 Z M5.59210526,5.82654101 L6.74342105,5.82654101 L6.74342105,2.574939 L7.96724301,5.82654101 L8.97694943,5.82654101 L10.1973684,2.574939 L10.1973684,5.82654101 L11.3486842,5.82654101 L11.3486842,1.41365257 L9.53081734,1.41365257 L8.49048343,4.26532407 L7.42462669,1.4201742 L5.59210526,1.41365257 L5.59210526,5.82654101 Z M12.1710526,5.82654101 L15.9539474,5.82654101 L15.9539474,4.86847876 L13.3425297,4.86847876 L13.3425297,4.08461136 L15.8929329,4.08461136 L15.8929329,3.15558222 L13.3425297,3.15558222 L13.3425297,2.40074792 L15.9539474,2.40074792 L15.9539474,1.41365257 L12.1710526,1.41365257 L12.1710526,5.82654101 Z M16.6118421,1.41365257 L16.6118421,5.82654101 L17.767664,5.82654101 L17.767664,4.25880487 L18.2543257,4.25880487 L19.6401715,5.82654101 L21.0526316,5.82654101 L19.5318131,4.20074238 C20.1559664,4.15046973 20.7997953,3.63914802 20.7997953,2.84530369 C20.7997953,1.91667642 20.0361768,1.41365257 19.183926,1.41365257 L16.6118421,1.41365257 Z M17.767664,2.400745 L19.0888748,2.400745 C19.4058151,2.400745 19.6363696,2.63738285 19.6363696,2.86525997 C19.6363696,3.15843245 19.3376474,3.32977494 19.1059842,3.32977494 L17.767664,3.32977494 L17.767664,2.400745 Z M22.5328947,5.82654101 L22.5328947,1.41365257 L21.3815789,1.41365257 L21.3815789,5.82654101 L22.5328947,5.82654101 Z M25.2897536,5.82654101 L25.7824745,4.86267214 L25.4745241,4.86267214 C24.7292469,4.86267214 24.2119258,4.50373796 24.2119258,3.64912989 C24.2119258,2.92946271 24.6643444,2.45881036 25.3040567,2.45881036 L26.6447368,2.45881036 L26.6447368,1.41365257 L25.3513437,1.41365257 C23.7754833,1.41365257 23.0263158,2.3456283 23.0263158,3.63824295 C23.0263158,4.89969452 23.7839661,5.82654101 25.0318449,5.82654101 L25.2897536,5.82654101 Z M27.7909197,1.41365257 L25.8223684,5.82654101 L27.1039971,5.82654101 L27.4672192,4.94288027 L29.5788015,4.94288027 L29.9401416,5.82654101 L31.25,5.82654101 L29.2833304,1.41365257 L27.7909197,1.41365257 Z M28.5192464,2.44066508 L29.1628836,3.98481721 L27.873727,3.98481721 L28.5192464,2.44066508 Z M31.4144737,5.82654101 L32.5546764,5.82654101 L32.5546764,2.98139114 L34.4525139,5.82654101 L35.8552632,5.82654101 L35.8552632,1.41365257 L34.7150604,1.41365257 L34.7150604,4.18622534 L32.8641063,1.41365257 L31.4144737,1.41365257 L31.4144737,5.82654101 Z" id="Combined-Shape"></path>
                            </g>
                        </g>
                    </g>
                </g>
            </g>
        </g>
    </g>
</svg>