<?xml version="1.0" encoding="utf-8"?>
<!-- Generator: Adobe Illustrator 20.1.0, SVG Export Plug-In . SVG Version: 6.00 Build 0)  -->
<svg version="1.1" id="Layer_1" xmlns="http://www.w3.org/2000/svg" xmlns:xlink="http://www.w3.org/1999/xlink" x="0px" y="0px"
	 viewBox="0 0 36 36" style="enable-background:new 0 0 36 36;" xml:space="preserve">
<style type="text/css">
	.st0{fill:#232322;}
</style>
<rect x="17.1" y="22.8" class="st0" width="1.9" height="13.3"/>
<path class="st0" d="M29.8,11.8C29.2,5,23,0.2,16.1,1.3C11.6,2,8.4,4.6,6.9,8.9c-1.5,4.3-1,8.4,2.2,11.8c1.2,1.3,2.6,2.3,4.1,3.4
	c0.3,0.1,0.6,0.1,0.8,0.2c1.2,0.2,2.3,0.4,3.4,0.6c0.3,0,0.6,0,0.9,0c0.1,0,0.2,0,0.3,0C25.5,24.3,30.4,18.5,29.8,11.8z M15.2,17.4
	c-1.1-2-2.1-4-3.2-5.9c1.2-1,1.8-0.6,2.2,0.7c0.3,0.9,0.7,1.8,1.2,2.9c2.8-2.1,5.6-4.1,8.4-6.1c0.4,0.4,0.9,0.7,1.5,1.3
	C21.9,12.6,18.6,14.9,15.2,17.4z"/>
</svg>
