<svg xmlns="http://www.w3.org/2000/svg" width="25" height="20" viewBox="0 0 25 20">
    <g fill="#FFF" fill-rule="nonzero">
        <path d="M20.167 10.973a.375.375 0 0 0-.17-.043.447.447 0 0 0-.326.142l-.907.906a.425.425 0 0 0-.128.312v3.599c0 .623-.221 1.157-.665 1.601a2.183 2.183 0 0 1-1.602.666H4.581a2.183 2.183 0 0 1-1.601-.666 2.183 2.183 0 0 1-.666-1.601V4.1c0-.623.221-1.157.666-1.6a2.183 2.183 0 0 1 1.6-.667h11.79c.207 0 .42.029.637.085.057.02.1.029.127.029a.448.448 0 0 0 .326-.142l.695-.694a.44.44 0 0 0 .127-.41.43.43 0 0 0-.255-.327A3.901 3.901 0 0 0 16.369.02H4.581c-1.124 0-2.086.399-2.884 1.197C.9 2.016.5 2.977.5 4.101v11.788c0 1.124.4 2.085 1.197 2.884.798.798 1.76 1.197 2.884 1.197h11.788c1.124 0 2.086-.399 2.884-1.197.798-.799 1.198-1.76 1.198-2.884v-4.506c0-.198-.096-.335-.284-.41z"/>
        <path d="M23.723 2.84l-1.558-1.56a1.104 1.104 0 0 0-.808-.34c-.312 0-.581.114-.808.34l-9.167 9.168-3.727-3.726a1.103 1.103 0 0 0-.807-.34c-.312 0-.581.113-.808.34L4.482 8.28c-.227.227-.34.496-.34.808 0 .312.113.58.34.808l6.092 6.092c.227.227.496.34.808.34.311 0 .58-.113.807-.34L23.723 4.455c.227-.227.34-.496.34-.808 0-.312-.113-.58-.34-.807z"/>
    </g>
</svg>
