<svg xmlns="http://www.w3.org/2000/svg" width="21.332" height="15.999" viewBox="0 0 21.332 15.999">
    <path d="M20.443 9.136V1.778A1.78 1.78 0 0 0 18.665 0h-16A1.78 1.78 0 0 0 .889 1.778v7.358A1.772 1.772 0 0 0 0 10.666v1.778a1.78 1.78 0 0 0 1.778 1.778v1.333a.444.444 0 0 0 .444.445h.889a.445.445 0 0 0 .4-.246l.766-1.532h12.781l.766 1.532a.445.445 0 0 0 .4.246h.889a.444.444 0 0 0 .444-.444v-1.335a1.78 1.78 0 0 0 1.778-1.778v-1.777a1.772 1.772 0 0 0-.892-1.53zM1.778 1.778a.89.89 0 0 1 .889-.889h16a.89.89 0 0 1 .889.889v7.111h-1.135c.054-.065.114-.119.163-.19a.442.442 0 0 0 0-.51 2.318 2.318 0 0 0-1.866-1.078H13.5a2.318 2.318 0 0 0-1.866 1.078.442.442 0 0 0 0 .51c.05.071.11.125.163.19H9.533c.054-.065.114-.119.163-.19a.442.442 0 0 0 0-.51A2.318 2.318 0 0 0 7.83 7.111H4.613a2.318 2.318 0 0 0-1.866 1.078.442.442 0 0 0 0 .51c.05.071.11.125.163.19H1.778zm15.871 6.666a1.3 1.3 0 0 1-.93.444H13.5a1.3 1.3 0 0 1-.93-.444A1.3 1.3 0 0 1 13.5 8h3.217a1.3 1.3 0 0 1 .932.444zm-8.888 0a1.3 1.3 0 0 1-.93.444H4.613a1.3 1.3 0 0 1-.93-.444A1.3 1.3 0 0 1 4.613 8H7.83a1.3 1.3 0 0 1 .931.444zM2.837 15.11h-.17v-.889h.614zm15.829 0H18.5l-.444-.889h.614zm1.778-2.666a.89.89 0 0 1-.889.889H1.778a.89.89 0 0 1-.889-.889v-1.778a.89.89 0 0 1 .889-.889h17.776a.89.89 0 0 1 .889.889z" data-name="Path 3203"/>
</svg>
