<?xml version="1.0" encoding="utf-8"?>
<!-- Generator: Adobe Illustrator 20.1.0, SVG Export Plug-In . SVG Version: 6.00 Build 0)  -->
<svg version="1.1" id="Layer_1" xmlns="http://www.w3.org/2000/svg" xmlns:xlink="http://www.w3.org/1999/xlink" x="0px" y="0px"
	 viewBox="0 0 36 36" style="enable-background:new 0 0 36 36;" xml:space="preserve">
<style type="text/css">
	.st0{fill:#232322;}
</style>
<g>
	<path class="st0" d="M6.6,10.9C7.3,4.7,13.1,0.2,19.5,0.9c6.2,0.7,10.7,6.6,10,12.9c-0.8,6.3-6.4,10.7-12.9,10.1
		C10.4,23.3,5.8,17.4,6.6,10.9z M17.9,14c0.9,1,1.8,1.8,2.6,2.8c0.8,0.9,1.4,0.9,2-0.2c-1.2-1.3-2.4-2.6-3.6-3.9c1-1.6,2-3,3-4.6
		c-0.6-0.3-1-0.5-1.5-0.7c-0.9,1.4-1.7,2.6-2.6,4.1c-1-1.1-2-2.1-2.9-3.1c-0.7-0.8-1.3-0.9-2,0.2c1.3,1.3,2.6,2.7,4,4
		c-1.1,1.4-2.2,2.7-3.3,4.1c0.6,0.3,1.1,0.5,1.6,0.8C16.1,16.4,17,15.3,17.9,14z"/>
</g>
<rect x="17.1" y="22.8" class="st0" width="1.9" height="13.3"/>
</svg>
