<?xml version="1.0" encoding="utf-8"?>
<!-- Generator: Adobe Illustrator 20.1.0, SVG Export Plug-In . SVG Version: 6.00 Build 0)  -->
<svg version="1.1" id="Layer_1" xmlns="http://www.w3.org/2000/svg" xmlns:xlink="http://www.w3.org/1999/xlink" x="0px" y="0px"
	 viewBox="0 0 36 36" style="enable-background:new 0 0 36 36;" xml:space="preserve">
<style type="text/css">
	.st0{fill:#232322;}
</style>
<g>
	<path class="st0" d="M31.8,15.2c-3.3,4.1-6.5,8.2-9.8,12.3c-0.4,0.5-0.8,0.7-1.5,0.5c0.9-1.1,1.7-2.2,2.6-3.3
		c2.5-3.2,5.1-6.4,7.7-9.6c0.3-0.4,0.3-0.6,0.1-1c-0.7-1.1-1.7-1.7-2.9-1.7c-1.4,0.1-2.3,0.8-2.8,2.1c-0.6,1.7-1.2,3.4-1.9,5.1
		c-0.9,2.6-1.9,5.2-2.8,7.8c-0.2,0.5-0.4,0.9-1.1,0.6c0.4-1.2,0.9-2.4,1.3-3.7c1.2-3.3,2.4-6.6,3.6-9.8c0.2-0.5,0.1-0.8-0.3-1.1
		c-1.1-1-2.7-1.2-3.9-0.4c-0.7,0.5-1.1,1-1.1,1.9c0,4.1,0,8.3,0,12.4c0,0.2,0,0.5,0,0.8c-0.3,0-0.5,0-0.8,0c0-0.3,0-0.6,0-0.8
		c0-4,0-8.1,0-12.1c0-1.7-1.1-2.8-2.8-2.7c-0.5,0-1,0.2-1.5,0.4c-1.1,0.5-1.2,0.9-0.8,2c1.6,4.2,3.1,8.4,4.7,12.6
		c0.1,0.1,0.1,0.3,0.1,0.5c-0.6,0.2-0.9,0-1.1-0.6c-1.5-4.2-3.1-8.4-4.6-12.7c-0.5-1.3-1.3-2.1-2.6-2.3c-1.3-0.2-2.9,0.6-3.3,1.9
		c-0.1,0.2,0,0.6,0.2,0.7c3.2,4.1,6.4,8.1,9.6,12.1c0.2,0.2,0.4,0.5,0.6,0.7c-0.8,0.2-0.9,0.2-1.4-0.4c-3.3-4.1-6.6-8.3-9.8-12.4
		c0-0.4,0-0.9,0-1.3c0.1-0.5,0.2-1,0.3-1.5C6.7,6.9,10,3.2,15.6,1.7c0.6-0.2,1.2-0.2,1.9-0.4c0.7,0,1.4,0,2.1,0
		c0.3,0.1,0.6,0.1,1,0.2c5.2,1,8.6,4,10.4,8.9c0.4,1.1,0.5,2.3,0.8,3.5C31.8,14.4,31.8,14.8,31.8,15.2z"/>
	<path class="st0" d="M15.5,34.7c-0.1-0.3-0.2-0.5-0.3-0.8c0-1.4,0-2.9,0-4.3c0-0.6,0.2-0.8,0.8-0.8c1.7,0,3.4,0,5.1,0
		c0.6,0,0.8,0.2,0.8,0.8c0,1.4,0,2.9,0,4.3c0,0.3-0.2,0.5-0.3,0.8C19.5,34.7,17.5,34.7,15.5,34.7z"/>
</g>
</svg>
