<svg xmlns="http://www.w3.org/2000/svg" xmlns:xlink="http://www.w3.org/1999/xlink" width="30" height="30" viewBox="0 0 30 30">
    <defs>
        <circle id="a" cx="15" cy="15" r="15"/>
    </defs>
    <g fill="none" fill-rule="evenodd">
        <mask id="b" fill="#fff">
            <use xlink:href="#a"/>
        </mask>
        <use fill="#F0F0F0" fill-rule="nonzero" xlink:href="#a"/>
        <g fill="#0052B4" fill-rule="nonzero" mask="url(#b)">
            <path d="M3.1 5.918a15.126 15.126 0 0 0-2.583 5.265H8.32L3.1 5.918zM29.483 11.183A15.127 15.127 0 0 0 26.9 5.918l-5.219 5.265h7.803zM.517 19.076A15.128 15.128 0 0 0 3.1 24.34l5.219-5.264H.517zM24.132 3.128A14.896 14.896 0 0 0 18.913.52v7.87l5.22-5.263zM5.868 27.131a14.896 14.896 0 0 0 5.219 2.606v-7.87l-5.22 5.264zM11.087.521a14.896 14.896 0 0 0-5.22 2.607l5.22 5.264V.522zM18.913 29.737a14.896 14.896 0 0 0 5.22-2.606l-5.22-5.264v7.87zM21.68 19.076l5.22 5.264a15.127 15.127 0 0 0 2.583-5.264H21.68z"/>
        </g>
        <g fill="#D80027" fill-rule="nonzero" mask="url(#b)">
            <path d="M29.873 13.156H16.957V.128a15.022 15.022 0 0 0-3.914 0v13.028H.127a15.41 15.41 0 0 0 0 3.947h12.916V30.13a15.02 15.02 0 0 0 3.914 0V17.103h12.916a15.409 15.409 0 0 0 0-3.947z"/>
            <path d="M18.913 19.076l6.694 6.751c.307-.31.601-.635.881-.97l-5.73-5.78h-1.845zM11.087 19.076l-6.694 6.751c.308.31.63.607.963.89l5.73-5.78v-1.86zM11.087 11.183L4.393 4.43c-.307.31-.601.635-.881.972l5.73 5.78h1.845zM18.913 11.183l6.694-6.752c-.308-.31-.63-.606-.963-.889l-5.73 5.78v1.86z"/>
        </g>
    </g>
</svg>
