<svg xmlns="http://www.w3.org/2000/svg" width="20" height="20" viewBox="0 0 20 20">
    <g fill="none" fill-rule="nonzero">
        <path fill="#00A557" d="M.571 5.143L10 9.885l9.429-4.742v10.115L10 20 .571 15.258z" opacity=".5"/>
        <path fill="#66C99A" d="M.571 6.286V9.18l9.398 4.534 9.46-4.55V6.286L10 10.836z"/>
        <path fill="#00A557" d="M9.714 20v-9.938L1.181 5.714h-.61v9.628z" opacity=".5"/>
        <path fill="#66C99A" d="M.571 6.286V9.18l9.113 4.534.03-.015V10.82v.016z"/>
        <path fill="#00A557" d="M0 4.825L10 0l10 4.825v.636l-10 4.825-10-4.81z" opacity=".6"/>
        <path fill="#EFEFEF" d="M15.795 1.501c-.332-.58-1.042-.93-1.88-.93-1.91 0-3.252 1.722-3.915 2.82C9.337 2.292 7.979.586 6.084.586 4.868.587 4 1.303 4 2.278c0 1.737 1.974 2.865 5.937 2.865S16 3.695 16 2.293c0-.274-.063-.548-.205-.792zm-9.3 1.874c-.442-.29-.6-.61-.6-.823 0-.259.252-.457.616-.457.852 0 1.531 1.082 1.91 1.829-.995-.076-1.579-.335-1.926-.549zm7.01 0c-.347.214-.931.473-1.926.549.363-.747 1.042-1.829 1.91-1.829.364 0 .616.198.616.457 0 .214-.158.534-.6.823z"/>
        <path fill="#00A557" d="M0 5.143l10 4.815 10-4.815v3.184L9.969 13.143 0 8.327z" opacity=".8"/>
        <path fill="#EFEFEF" d="M13.486 8.571v-.34L9.714 6.308 5.943 8.23v.34L3.429 7.536v-.474L9.589 4l.125.06L9.84 4 16 7.048v.473z"/>
        <path fill="#DCDCDC" d="M13.714 8.129v10.157L16 17.014V6.857z"/>
        <path fill="#D1D1D1" d="M4 17.016l2.286 1.27V8.143L4 6.857v10.159z"/>
    </g>
</svg>
