<?xml version="1.0" encoding="UTF-8"?>
<svg width="20px" height="20px" viewBox="0 0 20 20" version="1.1" xmlns="http://www.w3.org/2000/svg" xmlns:xlink="http://www.w3.org/1999/xlink">
    <!-- Generator: Sketch 54.1 (76490) - https://sketchapp.com -->
    <title>Group 19</title>
    <desc>Created with Sketch.</desc>
    <g id="Final" stroke="none" stroke-width="1" fill="none" fill-rule="evenodd">
        <g id="00-01-MPOS-Sales-Quotation" transform="translate(-455.000000, -364.000000)">
            <g id="Group-85" transform="translate(20.000000, 127.000000)">
                <g id="Dashboard">
                    <g id="Group-42" transform="translate(353.000000, 100.000000)">
                        <g id="Group-10">
                            <g id="Group-35">
                                <g id="Group-17" transform="translate(13.000000, 60.000000)">
                                    <g id="Group-9">
                                        <g id="Group-16">
                                            <g id="Group-52" transform="translate(10.000000, 76.000000)">
                                                <g id="Group-19" transform="translate(60.000000, 2.000000)">
                                                    <circle id="Oval" stroke="#E3DBDD" fill="#FFFFFF" cx="9" cy="9" r="9"></circle>
                                                    <path d="M11,13.8039354 L10.8370031,14.4369825 C10.3480125,14.6203506 9.95740543,14.7599129 9.6665412,14.8558683 C9.37536332,14.9521217 9.03703239,15 8.65154842,15 C8.05957385,15 7.59912594,14.8622256 7.27072747,14.5885641 C6.942329,14.3138099 6.77807749,13.965649 6.77807749,13.5432865 C6.77807749,13.3797849 6.78999645,13.2116147 6.81477532,13.0402659 C6.83976329,12.8687183 6.87949313,12.6755163 6.93386028,12.4595671 L7.5449679,10.4045729 C7.59933505,10.2077949 7.64554712,10.0213475 7.6825586,9.84503201 C7.72009284,9.66980919 7.73818037,9.50859228 7.73818037,9.36346725 C7.73818037,9.10103035 7.68099032,8.91746359 7.56713297,8.81425695 C7.45327562,8.71134831 7.23601614,8.65909932 6.9134726,8.65909932 C6.75549422,8.65909932 6.59312465,8.68313783 6.42761851,8.72962552 C6.26138051,8.77631187 6.11929406,8.8214089 6,8.86332728 L6.16341509,8.22978355 C6.56374548,8.07492392 6.94640654,7.94231481 7.3124438,7.83225422 C7.67848107,7.72189563 8.02433975,7.66666667 8.3514836,7.66666667 C8.93938063,7.66666667 9.39303264,7.80165976 9.7116032,8.07164594 C10.0301738,8.34183079 10.1894068,8.69207777 10.1894068,9.1236782 C10.1894068,9.21297826 10.1789516,9.37032121 10.1564728,9.59521036 C10.1345169,9.82059618 10.093637,10.0271088 10.0340422,10.2149469 L9.42554838,12.2616964 C9.37567698,12.426092 9.33082408,12.6140294 9.29182611,12.8255086 C9.25157351,13.0355972 9.23233591,13.1961188 9.23233591,13.3037954 C9.23233591,13.5755696 9.29611275,13.761123 9.42398009,13.8597603 C9.55278841,13.9583977 9.77464818,14.007468 10.0897685,14.007468 C10.2377099,14.007468 10.4060389,13.9825355 10.5930828,13.9335645 C10.779604,13.8845935 10.9156264,13.8415825 11,13.8039354 Z M11,5.37801408 C11,5.75768181 10.8674521,6.08193285 10.6010828,6.34854632 C10.3353993,6.6161116 10.0152468,6.75 9.64072312,6.75 C9.26502389,6.75 8.94408759,6.6161116 8.67536713,6.34854632 C8.40713649,6.0818271 8.27272727,5.75768181 8.27272727,5.37801408 C8.27272727,4.99908664 8.40713649,4.67430681 8.67536713,4.40430912 C8.94359777,4.13473445 9.26512185,4 9.64072312,4 C10.0151488,4 10.3353993,4.13505172 10.6010828,4.40430912 C10.8676481,4.67430681 11,4.9991924 11,5.37801408 Z" id="Shape" fill="#E3DBDD" fill-rule="nonzero"></path>
                                                </g>
                                            </g>
                                        </g>
                                    </g>
                                </g>
                            </g>
                        </g>
                    </g>
                </g>
            </g>
        </g>
    </g>
</svg>