<svg xmlns="http://www.w3.org/2000/svg" width="48" height="49" viewBox="0 0 48 49">
    <path fill="#00A657" fill-rule="nonzero" d="M26.436 48.884a5.35 5.35 0 0 1-1.264-.152 5.277 5.277 0 0 1-2.24-9.097L8.876 16.582l-.004-.007L.355 2.607a.915.915 0 0 1 .308-1.259.92.92 0 0 1 1.262.307L9.97 14.848l3.91-2.37-4.087-6.703a.913.913 0 0 1 .308-1.259L17.332.133a.919.919 0 0 1 1.262.307l4.087 6.704L25.392 5.5a.92.92 0 0 1 1.262.307l8.807 14.443 1.625-.986a.917.917 0 0 1 1.262.307l7.005 11.489 1.143-.693a.92.92 0 0 1 1.263.306.915.915 0 0 1-.308 1.259l-1.924 1.166-.005.003-.005.003-14.156 8.58a5.28 5.28 0 0 1-2.184 6.43c-.84.508-1.783.77-2.74.77zm-.015-8.728a3.446 3.446 0 0 0-.814 6.797 3.446 3.446 0 0 0 2.616-.404 3.446 3.446 0 0 0 1.16-4.735l-.001-.002-.001-.002a3.463 3.463 0 0 0-2.96-1.654zm-.003-1.831c1.497 0 2.965.632 3.988 1.794l13.377-8.107-6.527-10.705-1.62.981a.092.092 0 0 1-.006.004l-15.423 9.347 4.295 7.045a5.275 5.275 0 0 1 1.916-.36zm-10.11-13.08l2.945 4.829 4.69-2.844.005-.002 9.943-6.026-8.33-13.66-2.704 1.64-.006.003-7.232 4.383-.008.005-4.687 2.84 5.385 8.833zM11.84 5.606l3.61 5.922 5.663-3.432-3.61-5.92-5.663 3.43z"/>
</svg>
