<svg xmlns="http://www.w3.org/2000/svg" width="48" height="48" viewBox="0 0 48 48">
    <path fill="#00A657" fill-rule="evenodd" d="M44.64 22.143c1.9.295 3.36 1.973 3.36 3.993v8.182a.76.76 0 0 1-.752.767h-2.456l.001.051c0 2.679-2.135 4.858-4.76 4.858-2.624 0-4.76-2.18-4.76-4.858l.002-.051H18.337l.001.051c0 2.679-2.135 4.858-4.76 4.858-2.624 0-4.76-2.18-4.76-4.858l.002-.051H4.76c-.857 0-1.553-.711-1.553-1.585v-1.688H.752A.76.76 0 0 1 0 31.045a.76.76 0 0 1 .752-.767h7.215a.76.76 0 0 1 .751.767.76.76 0 0 1-.751.767H4.71V33.5a.05.05 0 0 0 .05.05h4.32c.645-1.902 2.418-3.272 4.498-3.272 2.081 0 3.853 1.37 4.499 3.273H33.67v-5.778a.76.76 0 0 1 .751-.767.76.76 0 0 1 .752.767v5.778h.362c.645-1.902 2.417-3.273 4.498-3.273 2.081 0 3.853 1.37 4.499 3.273h1.965v-3.375h-.852c-1.299 0-2.355-1.078-2.355-2.403v-1.637a.76.76 0 0 1 .752-.767h2.337c-.319-1.007-1.245-1.737-2.336-1.738h-.002-8.868v.87a.76.76 0 0 1-.751.766.76.76 0 0 1-.752-.767V10.591a.05.05 0 0 0-.05-.051H4.76a.05.05 0 0 0-.05.051V24.5a.76.76 0 0 1-.752.767.76.76 0 0 1-.751-.767V10.591c0-.874.696-1.585 1.553-1.585h28.86c.857 0 1.553.711 1.553 1.585v1.688h5.662c1.74 0 3.157 1.445 3.157 3.221v.818a.764.764 0 0 1-.595.75l1.243 5.075zm-9.467-8.33v1.738h7.316v-.05c0-.931-.742-1.688-1.654-1.688h-5.662zm0 8.284h7.906l-1.227-5.012h-6.679v5.012zM13.578 38.46c1.796 0 3.257-1.491 3.257-3.324 0-1.833-1.46-3.324-3.257-3.324-1.795 0-3.256 1.491-3.256 3.324 0 1.833 1.46 3.324 3.256 3.324zm26.455 0c1.796 0 3.257-1.491 3.257-3.324 0-1.833-1.46-3.324-3.257-3.324-1.795 0-3.256 1.491-3.256 3.324 0 1.833 1.46 3.324 3.256 3.324zm6.464-9.818v-1.739h-1.704v.87c0 .479.382.869.852.869h.852zM13.578 33.55c.857 0 1.554.711 1.554 1.585s-.697 1.585-1.554 1.585c-.856 0-1.553-.71-1.553-1.585 0-.874.697-1.585 1.553-1.585zm26.455 0c.857 0 1.554.711 1.554 1.585s-.697 1.585-1.554 1.585c-.856 0-1.553-.71-1.553-1.585 0-.874.697-1.585 1.553-1.585zm-8.818-3.273a.76.76 0 0 1 .752.767.76.76 0 0 1-.752.767H19.992a.76.76 0 0 1-.752-.767.76.76 0 0 1 .752-.767h11.223zm-19.24-3.272a.76.76 0 0 1 .752.767.76.76 0 0 1-.752.767h-9.62a.76.76 0 0 1-.752-.767.76.76 0 0 1 .752-.767h9.62zm14.16-10.412c.293.3.293.785 0 1.085l-7.215 7.363a.741.741 0 0 1-1.063 0l-4.008-4.09a.778.778 0 0 1 0-1.085.74.74 0 0 1 1.062 0l3.477 3.548 6.684-6.82a.74.74 0 0 1 1.063-.001z"/>
</svg>
