<svg xmlns="http://www.w3.org/2000/svg" width="20" height="13" viewBox="0 0 20 13">
    <g fill="none" fill-rule="evenodd">
        <path d="M0 0h19.897v19.897H0z"/>
        <path fill="#7C7F83" d="M14.843 10.212c.343.54 1.087 1.942.605 3.308-.333.947-1.17 1.656-2.488 2.105-.466.16-.996.256-1.507.35-1.418.26-2.005.452-1.971.983.046.722.257 1.478.61 2.187a.496.496 0 0 1-.445.72.495.495 0 0 1-.445-.276 6.77 6.77 0 0 1-.713-2.569c-.094-1.498 1.502-1.79 2.785-2.023.476-.087.968-.177 1.365-.313 1.016-.347 1.644-.848 1.871-1.494.346-.982-.3-2.12-.506-2.444-.063-.1-.19-.269-.37-.513-.93-1.257-3.112-4.205-5.719-9.323A.497.497 0 0 1 8.803.46c2.567 5.045 4.714 7.945 5.631 9.183.2.27.34.46.41.57zm-5.917 3.685c.896-.071 1.165-.424 1.162-.544-.002-.082-.177-.2-.501-.21-1.137-.041-1.747.257-2.6.66l-.37.174c-1.517.692-2.6.163-2.966-.624-.409-.878.015-2.163 1.616-2.92a.498.498 0 0 1 .426.9c-1.004.473-1.336 1.178-1.14 1.6.166.356.753.55 1.648.14l.36-.168c.905-.428 1.689-.802 3.055-.758.989.03 1.453.633 1.466 1.181.018.693-.618 1.445-2.077 1.56a.497.497 0 0 1-.079-.99z"/>
        <path fill="#AEB3C1" d="M.995 9.949a8.91 8.91 0 0 1 2.29-5.96L15.91 16.611a8.91 8.91 0 0 1-5.96 2.29C5.01 18.903.995 14.887.995 9.95m17.908 0a8.91 8.91 0 0 1-2.29 5.96L3.987 3.285a8.91 8.91 0 0 1 5.96-2.29c4.938 0 8.955 4.016 8.955 8.954M9.949 0C4.454 0 0 4.454 0 9.949c0 5.494 4.454 9.948 9.949 9.948 5.494 0 9.948-4.454 9.948-9.948C19.897 4.454 15.443 0 9.95 0"/>
    </g>
</svg>
