<svg xmlns="http://www.w3.org/2000/svg" width="20" height="13" viewBox="0 0 20 13">
    <g fill="none" fill-rule="evenodd">
        <path d="M0 0h19.897v19.897H0z"/>
        <path fill="#7C7F83" d="M9.813 3.693c.28 0 .582.102.853.296.352.251.702.725.632 1.297l-.02.147c-.083.617-.238 1.765.472 2.414.322.294.782.441 1.37.441.336 0 .714-.047 1.133-.143.093-.02.188-.03.286-.03.614 0 1.307.402 1.708 1.023.452.701.413 1.5-.112 2.19-.557.736-1.272.788-1.904.833-.53.038-1.08.078-1.307.601-.213.49-.07 1.049.07 1.59.19.746.285 1.219-.17 1.515-.13.085-.34.193-.558.193a.56.56 0 0 1-.322-.097.707.707 0 0 1-.14-.129c-.289-.344-.37-1.04-.204-1.853.19-.931-.3-1.471-.869-1.594a1.255 1.255 0 0 0-.825.11 1.027 1.027 0 0 0-.53.69c-.02.086-.033.175-.047.27-.062.433-.13.726-.476.857a.848.848 0 0 1-.3.06.6.6 0 0 1-.282-.07c-.219-.116-.388-.383-.476-.75-.122-.514-.374-.85-.75-.996a1.194 1.194 0 0 0-.439-.078c-.438 0-.964.204-1.568.61a.845.845 0 0 1-.474.158.742.742 0 0 1-.56-.274 1.09 1.09 0 0 1 .002-1.433c.223-.255.688-.264 1.18-.275.604-.012 1.286-.026 1.713-.517a.891.891 0 0 0 .196-.706 1.146 1.146 0 0 0-.475-.79c-.326-.225-.654-.258-.918-.284-.121-.012-.236-.023-.303-.053-.304-.131-.533-.54-.357-1.039.109-.312.39-.597.869-.597.118 0 .25.016.393.055.193.053.384.079.567.079.361 0 .695-.102.97-.302.333-.241.741-.746.792-1.773.04-.8.293-1.336.733-1.548.137-.066.289-.098.447-.098m0-.995c-.312 0-.609.067-.879.197-.55.266-1.22.897-1.294 2.395-.025.494-.161.855-.384 1.018a.639.639 0 0 1-.385.111c-.096 0-.2-.014-.306-.044a2.534 2.534 0 0 0-.654-.09c-.842 0-1.535.484-1.809 1.263-.327.935.06 1.915.9 2.28.212.093.42.113.603.13.214.022.34.038.448.113.017.011.036.037.047.066-.177.12-.593.127-.933.135-.623.013-1.398.029-1.91.614-.783.895-.584 2.083 0 2.746.347.394.812.61 1.307.61.354 0 .71-.113 1.029-.327.593-.398.906-.44 1.013-.44.023 0 .054 0 .077.01.049.018.107.139.145.299.155.65.502 1.147.976 1.399.232.123.485.186.75.186.214 0 .433-.042.65-.124.921-.348 1.049-1.223 1.11-1.644.01-.069.018-.133.032-.195a.175.175 0 0 1 .127-.05c.016 0 .033 0 .05.004.148.032.138.247.102.422-.23 1.121-.078 2.102.417 2.692.101.12.215.225.342.31.258.178.564.271.882.271.459 0 .85-.192 1.099-.354 1.079-.7.774-1.888.592-2.598-.085-.328-.18-.697-.137-.893.114-.03.34-.046.483-.057.715-.051 1.796-.129 2.625-1.223.78-1.028.838-2.274.154-3.332-.58-.899-1.577-1.479-2.543-1.479-.174 0-.345.02-.508.056-.344.079-.65.119-.91.119-.229 0-.535-.031-.7-.182-.325-.297-.211-1.14-.157-1.545l.021-.16c.124-1.005-.455-1.81-1.04-2.227a2.496 2.496 0 0 0-1.432-.482"/>
        <path fill="#AEB3C1" d="M.995 9.949a8.91 8.91 0 0 1 2.29-5.96L15.91 16.611a8.91 8.91 0 0 1-5.96 2.29C5.01 18.903.995 14.887.995 9.95m17.908 0a8.91 8.91 0 0 1-2.29 5.96L3.987 3.285a8.91 8.91 0 0 1 5.96-2.29c4.938 0 8.955 4.016 8.955 8.954M9.949 0C4.454 0 0 4.454 0 9.949c0 5.494 4.454 9.948 9.949 9.948 5.494 0 9.948-4.454 9.948-9.948C19.897 4.454 15.443 0 9.95 0"/>
    </g>
</svg>
