<svg xmlns="http://www.w3.org/2000/svg" width="20" height="13" viewBox="0 0 20 13">
    <g fill="none" fill-rule="evenodd">
        <path fill-rule="nonzero" d="M0 0h19.897v19.897H0z"/>
        <path fill="#7C7F83" d="M7.392 15.562l-.524.118a.637.637 0 0 1-.55-.15.27.27 0 0 1-.095-.196 28.052 28.052 0 0 0-.177-3.209 21.032 21.032 0 0 0-.511-2.795A16.806 16.806 0 0 0 4.36 6.13c-.016-.03-.03-.075-.003-.15.046-.133.185-.272.344-.347a.658.658 0 0 1 .141-.048l6.65-1.347a1.473 1.473 0 0 1 .341-.035c.246 0 .433.061.566.183.17.158.286.441.344.836l-.011.002-.012-.002c-.062 0-.117.024-.176.032-.105.013-.21.019-.307.056-.009.003-.015.009-.023.013a1.35 1.35 0 0 0-.385.226c-.027.023-.044.056-.068.081a1.385 1.385 0 0 0-.235.282c-.016.027-.02.061-.034.09-.056.114-.11.232-.131.36A1.38 1.38 0 0 0 9.58 7.677v3.264c-.006-.003-.013-.005-.02-.01a1.8 1.8 0 0 0-.727-.255c-.074-.01-.147-.034-.221-.034H8.61c-.347 0-.649.109-.887.285-.027.02-.052.043-.08.065-.047.043-.097.084-.136.134a1.03 1.03 0 0 0-.174.275c-.08.194-.188.654.167 1.198.074.114.163.233.285.354.13.129.238.265.33.406.275.426.408.908.557 1.448.041.15.086.304.132.458-.765.166-1.401.294-1.412.297m9.837-7.685a1.416 1.416 0 0 0-1.377-.354 1.378 1.378 0 0 0-1.772-1.159 1.34 1.34 0 0 0-.308-.624c-.023-.977-.247-1.668-.698-2.084-.373-.344-.879-.49-1.478-.436a2.522 2.522 0 0 0-.301.043l-6.65 1.348a1.66 1.66 0 0 0-.366.123c-.404.19-.725.533-.86.919-.109.31-.09.636.05.918.456.928.827 1.941 1.102 3.008.216.84.38 1.735.487 2.66.113.961.17 2.003.17 3.095 0 .344.145.67.403.915a1.627 1.627 0 0 0 1.457.401l.511-.115s.728-.146 1.569-.332c.193.359.4.56.574.72.188.175.291.271.372.595.042.167.07.379.088.616v1.227a.496.496 0 1 0 .994 0v-1.26c-.022-.33-.06-.6-.117-.825-.152-.61-.434-.872-.66-1.081a1.595 1.595 0 0 1-.471-.658c-.012-.029-.019-.057-.03-.085-.116-.301-.2-.607-.283-.907-.217-.785-.442-1.596-1.149-2.297-.207-.208-.266-.384-.232-.467.029-.07.152-.144.357-.144.366 0 .767.33 1.02.84a.496.496 0 0 0 .56.262.497.497 0 0 0 .385-.483V7.677c0-.024.009-.045.014-.068a.38.38 0 0 1 .311-.299c.019-.003.037-.01.057-.01a.39.39 0 0 1 .354.231c.019.045.03.095.03.146v3.1a.497.497 0 1 0 .995 0V7.682 6.597c0-.004.003-.008.004-.012a.358.358 0 0 1 .05-.17l.02-.029a.407.407 0 0 1 .138-.123.369.369 0 0 1 .201-.04.39.39 0 0 1 .214.095c.008.007.018.006.026.012.07.069.115.165.115.267V11.157a.496.496 0 1 0 .995 0v-3.48c0-.205.174-.378.382-.378.211 0 .385.17.385.378V11.466a.498.498 0 0 0 .994 0V8.84c0-.312.44-.488.661-.263a.36.36 0 0 1 .106.257l-.044 3.797c-.018 1.482-.46 2.29-.752 2.826-.14.255-.251.457-.281.737l.001.968c0 .274.222.496.497.496h.001a.498.498 0 0 0 .497-.498l-.006-.898c.012-.053.095-.205.163-.328.32-.584.854-1.56.875-3.292l.044-3.796a1.348 1.348 0 0 0-.394-.969"/>
        <path fill="#AEB3C1" d="M9.949.995c4.937 0 8.954 4.016 8.954 8.954 0 4.937-4.017 8.954-8.954 8.954-4.938 0-8.954-4.017-8.954-8.954C.995 5.01 5.01.995 9.949.995m0-.995C4.454 0 0 4.454 0 9.949c0 5.494 4.454 9.948 9.949 9.948 5.494 0 9.948-4.454 9.948-9.948C19.897 4.454 15.443 0 9.95 0"/>
    </g>
</svg>
