<?xml version="1.0" encoding="utf-8"?>
<!-- Generator: Adobe Illustrator 20.1.0, SVG Export Plug-In . SVG Version: 6.00 Build 0)  -->
<svg version="1.1" id="Layer_1" xmlns="http://www.w3.org/2000/svg" xmlns:xlink="http://www.w3.org/1999/xlink" x="0px" y="0px"
	 viewBox="0 0 36 36" style="enable-background:new 0 0 36 36;" xml:space="preserve">
<style type="text/css">
	.st0{fill:#232322;}
</style>
<g>
	<path class="st0" d="M5.6,10.3c-1.4,0-2.7,0-4,0C1.5,8,1.6,5.9,2.7,3.9C3.6,2.2,5,1.3,7,1.3c6.3,0,12.6,0,18.8,0
		c2.8,0,4.1,1.4,4.1,4.2c0,6.4,0,12.9,0,19.3c0,0.5,0,1,0,1.6c1.4,0,2.6,0,4,0c0.1,2.3-0.2,4.4-1.8,6c-1,1.1-2.3,1.3-3.7,1.3
		c-4.7,0-9.5,0-14.2,0c-1.8,0-3.6,0-5.4,0c-2.2,0-3.2-1-3.2-3.2c0-5.6,0-11.3,0-16.9C5.6,12.5,5.6,11.5,5.6,10.3z M9.8,26.4
		c6,0,12.1,0,18.1,0c0-7.2,0-14.3,0-21.3c0-1.2-0.6-1.7-1.9-1.7c-6,0-12,0-18,0c-0.3,0-0.6,0-0.7,0c0.1,1.4,0.3,2.7,0.3,4.1
		c0,7.6,0,15.2,0,22.8c0,0.4,0.3,0.9,0.5,1.3c0.4-0.4,0.8-0.7,1-1.1c0.2-0.3,0.2-0.6,0.3-1C9.6,28.6,9.7,27.6,9.8,26.4z M31.7,28.5
		C31.7,28.5,31.7,28.5,31.7,28.5c-6.6-0.1-13-0.1-19.5,0c-0.2,0-0.6,0.3-0.7,0.5c-0.2,0.8-0.4,1.7-0.6,2.6c6.1,0,12,0,18,0
		C30.7,31.6,31.7,30.3,31.7,28.5z M3.6,8.2c0.7,0,1.3,0,2.1,0C5.6,6.8,5.5,5.5,5.3,4.1c-0.1,0-0.3,0-0.4,0C3.9,5.3,3.7,6.7,3.6,8.2z
		"/>
	<path class="st0" d="M13.2,6.6c0.2,0,0.8,0,1.3,0c0.3,1,0.3,1,1.9,1.7c-0.1,0.5-0.2,1-0.4,1.6c-1,0-2-0.6-3.3,0.2
		c0.6,0.3,1,0.5,1.4,0.7c0.7,0.4,1.5,0.7,2.1,1.3c0.9,1,0.7,2.7-0.5,3.3c-0.9,0.4-1.2,0.9-1.1,1.9c-0.6,0-1.2,0-1.8,0
		c0-0.4-0.1-0.8-0.1-1.2c-0.7-0.2-1.4-0.5-2.2-0.7c0.2-0.6,0.4-1.2,0.6-1.7c0.8,0.2,1.5,0.4,2.2,0.5c0.3,0,0.7-0.2,1.1-0.4
		c-0.3-0.3-0.5-0.6-0.8-0.8c-0.4-0.3-1-0.4-1.4-0.6c-0.9-0.4-1.5-1.1-1.5-2.1c0-1,0.5-1.7,1.3-2.2C12.6,7.8,12.8,7.2,13.2,6.6z"/>
	<path class="st0" d="M11,21.2c4.9,0,9.8,0,14.7,0c0.5,1.8,0.3,1.9-1.4,1.9c-4,0-7.9,0-11.9,0C10.7,23.1,10.7,23.1,11,21.2z"/>
	<path class="st0" d="M19.5,9.6c0-0.7,0-1.3,0-1.9c2.1,0,4.1,0,6.1,0c0,0.6,0,1.2,0,1.9C23.6,9.6,21.6,9.6,19.5,9.6z"/>
	<path class="st0" d="M25.7,12.3c0,0.6,0,1.2,0,1.9c-2.1,0-4.1,0-6.1,0c0-0.6,0-1.2,0-1.9C21.5,12.3,23.5,12.3,25.7,12.3z"/>
	<path class="st0" d="M19.5,18.4c0-0.7,0-1.3,0-1.9c2,0,4,0,6.1,0c0,0.6,0,1.2,0,1.9C23.6,18.4,21.6,18.4,19.5,18.4z"/>
</g>
</svg>
