<svg xmlns="http://www.w3.org/2000/svg" xmlns:xlink="http://www.w3.org/1999/xlink" width="16" height="16" viewBox="0 0 16 16">
    <defs>
        <circle id="a" cx="8" cy="8" r="8"/>
    </defs>
    <g fill="none" fill-rule="evenodd">
        <mask id="b" fill="#fff">
            <use xlink:href="#a"/>
        </mask>
        <use fill="#F0F0F0" fill-rule="nonzero" xlink:href="#a"/>
        <g fill="#0052B4" fill-rule="nonzero" mask="url(#b)">
            <path d="M1.654 3.156A8.067 8.067 0 0 0 .276 5.964h4.161L1.654 3.156zM15.724 5.964a8.068 8.068 0 0 0-1.378-2.808l-2.783 2.808h4.161zM.276 10.174a8.068 8.068 0 0 0 1.378 2.808l2.783-2.808H.276zM12.87 1.668a7.944 7.944 0 0 0-2.783-1.39v4.198l2.784-2.808zM3.13 14.47a7.945 7.945 0 0 0 2.783 1.39v-4.198L3.13 14.47zM5.913.278a7.945 7.945 0 0 0-2.784 1.39l2.784 2.808V.278zM10.087 15.86a7.945 7.945 0 0 0 2.784-1.39l-2.784-2.808v4.198zM11.563 10.174l2.783 2.808a8.068 8.068 0 0 0 1.378-2.808h-4.161z"/>
        </g>
        <g fill="#D80027" fill-rule="nonzero" mask="url(#b)">
            <path d="M15.932 7.017H9.044V.068a8.012 8.012 0 0 0-2.087 0v6.948H.067a8.219 8.219 0 0 0 0 2.105h6.89v6.949a8.011 8.011 0 0 0 2.086 0V9.12h6.89a8.218 8.218 0 0 0 0-2.104z"/>
            <path d="M10.087 10.174l3.57 3.6c.164-.165.32-.338.47-.517l-3.056-3.083h-.984zM5.913 10.174l-3.57 3.6c.164.166.336.324.514.475l3.056-3.083v-.992zM5.913 5.964l-3.57-3.6c-.164.165-.32.338-.47.517l3.056 3.083h.984zM10.087 5.964l3.57-3.6a8.036 8.036 0 0 0-.514-.475l-3.056 3.083v.992z"/>
        </g>
    </g>
</svg>
