<svg xmlns="http://www.w3.org/2000/svg" width="172" height="123" viewBox="0 0 172 123">
    <g fill="none" fill-rule="evenodd">
        <path fill="#FFF" d="M86.32 22.394c8.797-.02 16.01 7.214 16.032 16.076.017 8.88-7.149 16.135-15.933 16.156-8.822.022-16.032-7.195-16.05-16.074-.02-8.859 7.145-16.113 15.95-16.158"/>
        <path fill="#FEFAD6" d="M100.422 39.817l24.163 2.215-3.604 2.553-20.705-3.672c.042-.334.125-.738.146-1.096"/>
        <path fill="#FCEE21" d="M100.336 36.505l20.81-2.992 3.438 8.519-24.163-2.212c.083-1.078.083-2.176-.086-3.272v-.043zM99.035 32.288l18.844-9.344 5.928 7.003-23.655 5.421c-.276-1.054-.633-2.11-1.117-3.08"/>
        <path fill="#FEFAD6" d="M100.152 35.368l23.655-5.42-2.66 3.565-20.811 2.994c-.06-.359-.104-.738-.184-1.095v-.044z"/>
        <path fill="#FCEE21" d="M96.504 28.66l15.13-14.766 7.708 4.852-20.809 12.53c-.626-.93-1.28-1.835-2.03-2.617"/>
        <path fill="#FEFAD6" d="M98.534 31.273l20.808-12.527-1.463 4.198-18.844 9.344c-.149-.32-.332-.654-.501-1.015"/>
        <path fill="#03A550" d="M92.962 26l9.866-18.772 8.91 2.237-16.054 18.413c-.816-.695-1.743-1.372-2.68-1.878h-.042z"/>
        <path fill="#CCE6D2" d="M95.684 27.878l16.053-18.413-.107 4.429-15.126 14.765c-.277-.275-.547-.548-.82-.781"/>
        <path fill="#03A550" d="M88.792 24.57l3.603-20.864 9.137-.697-9.538 22.507a15.795 15.795 0 0 0-3.202-.947"/>
        <path fill="#CCE6D2" d="M91.994 25.516l9.538-22.506 1.296 4.218L92.958 26c-.331-.146-.65-.336-.964-.465v-.019z"/>
        <path fill="#03A550" d="M84.43 24.505l-3.022-21.01L89.901.037 87.702 24.42c-1.09-.065-2.182-.065-3.271.085"/>
        <path fill="#CCE6D2" d="M87.702 24.42l2.2-24.383 2.493 3.67-3.603 20.863c.038 0 0 0 0 0-.34-.065-.71-.109-1.09-.15"/>
        <path fill="#03A550" d="M80.194 25.812l-9.26-19.048L77.911.836l5.388 23.88c-1.048.273-2.1.633-3.106 1.096"/>
        <path fill="#CCE6D2" d="M83.3 24.716L77.912.836l3.496 2.66 3.023 21.009c-.398.083-.737.127-1.131.21"/>
        <path fill="#03A550" d="M76.615 28.362L61.921 13.154l4.842-7.823 12.453 21.03c-.927.547-1.826 1.266-2.6 2"/>
        <path fill="#CCE6D2" d="M79.216 26.36L66.763 5.331l4.167 1.433 9.264 19.048c-.31.148-.67.36-.978.548"/>
        <path fill="#0168A5" d="M73.994 31.93l-18.696-9.915 2.183-8.963 18.356 16.136a13.969 13.969 0 0 0-1.843 2.655v.086z"/>
        <path fill="#B9D1EB" d="M75.837 29.188L57.481 13.052l4.44.102 14.694 15.208a13.7 13.7 0 0 0-.778.826"/>
        <path fill="#0168A5" d="M72.548 36.108l-20.812-3.651-.65-9.177 22.403 9.66a15.048 15.048 0 0 0-.94 3.168"/>
        <path fill="#B9D1EB" d="M73.489 32.94l-22.403-9.66 4.212-1.262 18.696 9.912c-.208.318-.36.656-.505 1.01"/>
        <path fill="#0168A5" d="M72.486 40.534l-20.916 3.02-3.437-8.544 24.27 2.235c-.108 1.096-.062 2.192.083 3.289"/>
        <path fill="#B9D1EB" d="M72.403 37.245l-24.27-2.235 3.603-2.553 20.809 3.651c0-.043 0 0 0 0-.06.398-.104.736-.142 1.137"/>
        <path fill="#0168A5" d="M73.786 44.754L54.838 54.1l-5.93-7.068 23.785-5.421c.229 1.14.633 2.153 1.093 3.164v-.021z"/>
        <path fill="#B9D1EB" d="M72.693 41.611l-23.786 5.421 2.663-3.479 20.916-3.02c.041.38.124.784.207 1.078"/>
        <path fill="#0168A5" d="M76.321 48.381L61.167 63.148l-7.795-4.875L74.33 45.765c.543.971 1.255 1.838 1.992 2.616"/>
        <path fill="#B9D1EB" d="M74.33 45.765l-20.958 12.51 1.466-4.175 18.948-9.344c.163.336.353.694.543 1.01"/>
        <path fill="#EB2227" d="M79.842 51.018L69.968 69.77l-8.884-2.172L77.14 49.14c.813.762 1.757 1.375 2.702 1.878"/>
        <path fill="#FBD3C1" d="M77.137 49.14L61.084 67.598l.083-4.45L76.321 48.38c.27.3.543.509.816.8v-.041z"/>
        <path fill="#EB2227" d="M83.988 52.453l-3.603 20.923-9.116.654 9.617-22.505c1.006.422 2.054.739 3.102.928h.045-.045z"/>
        <path fill="#FBD3C1" d="M80.886 51.526L71.269 74.03l-1.3-4.26 9.873-18.751c.335.19.691.361 1.044.506"/>
        <path fill="#EB2227" d="M88.411 52.516l2.977 21.027-8.448 3.443L85.122 52.6c1.131.125 2.217.085 3.289-.084"/>
        <path fill="#FBD3C1" d="M85.122 52.6L82.94 76.986l-2.555-3.61 3.603-20.923a7.87 7.87 0 0 0 1.176.147h-.042z"/>
        <path fill="#EB2227" d="M92.603 51.228l9.31 19.05-7.025 5.882-5.384-23.832c1.086-.233 2.137-.634 3.144-1.1h-.045z"/>
        <path fill="#FBD3C1" d="M89.504 52.328l5.384 23.833-3.5-2.618-2.977-21.027c.38-.042.734-.104 1.135-.188h-.042z"/>
        <path fill="#EB2227" d="M96.21 48.678l14.711 15.189-4.841 7.863L93.57 50.663a14.249 14.249 0 0 0 2.639-1.985"/>
        <path fill="#FBD3C1" d="M93.57 50.66l12.51 21.07-4.168-1.452-9.31-19.048c.36-.212.674-.36 1.007-.57h-.038z"/>
        <path fill="#FCEE21" d="M98.848 45.112l18.654 9.957-2.203 8.9-18.315-16.112a13.526 13.526 0 0 0 1.864-2.745"/>
        <path fill="#FEFAD6" d="M96.984 47.857L115.3 63.97l-4.378-.102L96.21 48.678c.269-.274.542-.55.774-.82"/>
        <path fill="#FCEE21" d="M100.276 40.913l20.705 3.672.668 9.176-22.3-9.68c.423-1.015.737-2.068.927-3.168"/>
        <path fill="#FEFAD6" d="M99.35 44.08l22.299 9.68-4.147 1.31-18.654-9.957c.187-.359.357-.676.543-1.032h-.041z"/>
        <path fill="#CCE6D2" d="M76.59 32.584v-2.511l7.463-.042v2.574c-3.292.505-5.744 3.375-5.72 6.77 0 3.354 2.453 6.244 5.762 6.71v2.552c-4.506.044-8.217-3.63-8.217-8.164-.017-3.755 2.432-6.918 5.976-7.913l-5.263.024z"/>
        <path fill="#03A550" d="M88.747 48.612h.082c3.877-.019 7.104-3.038 7.36-6.979l.02-11.642-7.504.019v2.53h4.97l.041 8.29v.275c0 2.72-2.24 4.958-4.97 4.958v2.55z"/>
        <path fill="#FCEE21" d="M80.492 37.036c.228 0-.422-.782-.232-.782.273-.231.775-.043 1.003-.275.145-.443 1.134-.866.314-.21.464-.377.422-1.096.779-1.286.733.38 1.28.886 2.036 1.286.1.15.495.423.73.778.273-.04 1.404-.439 1.691-.482.45.085.322.506.72.631.394.509.792 1.708 1.027 2.068 0 .127.716-.148.716 0 .373.465.874-1.415 1.276-.948.546.041-.083 1.096.46 1.096.207.127 1.213.317 1.362.38-.463.716-1.47 2.638-1.93 3.334-.27.271-.94.865-1.905.8-.526.842-1.072.548-1.726 1.011-.083-.083-1.04 1.245-1.124 1.245-.231.256-.782-1.35-.985-1.161-.062-.188-.15-.42-.235-.674a9.446 9.446 0 0 1-.457-.506c-.439-.505-.86-.971-1.28-1.478-.082-.463-.165-.927-.255-1.411a13.788 13.788 0 0 0-.9-.738 39.02 39.02 0 0 0-.58-1.394c-.24-.19-.422-.357-.657-.548.069-.275.107-.507.152-.736"/>
        <path fill="#CCE6D2" d="M86.066 37.92c1.155-.023 2.075.927 2.075 2.088 0 1.18-.902 2.15-2.075 2.172-1.179 0-2.099-.97-2.099-2.15 0-1.183.92-2.11 2.1-2.11"/>
        <g fill="#231F20" fill-rule="nonzero">
            <path d="M19.293 119.214c-.097.357-.246.637-.44.846-.151.168-.359.287-.617.35-.26.07-.709.105-1.341.105h-.684v-6.493c0-.37.052-.595.155-.678.104-.077.325-.12.66-.12h.58v-1.438H11.46v1.439h.515c.363 0 .59.05.69.14.101.09.15.336.15.734v5.566c0 .395-.049.64-.152.734-.1.095-.332.143-.688.143h-.625c-.298 0-.512-.055-.647-.16-.134-.105-.28-.413-.446-.916l-2.39-7.68H4.172l-2.681 7.708c-.132.37-.284.64-.46.804a.928.928 0 0 1-.65.245h-.38v1.446h4.565v-1.446h-.505a1.48 1.48 0 0 1-.528-.077c-.125-.049-.187-.119-.187-.206 0-.067.01-.144.031-.231.02-.084.056-.2.11-.346l.322-.975h2.747l.366 1.094c.017.066.035.14.049.21.01.07.017.146.017.223 0 .119-.045.203-.132.245-.086.041-.32.063-.708.063h-.46v1.446h15.386v-4.256h-1.582c-.034.629-.1 1.125-.2 1.481zm-15.017-1.97l.871-3.09.926 3.09H4.276zM22.468 117.216h4.45v2.418h-4.45zM37.498 113.225v-1.44h-6.102v1.44h.574c.362 0 .59.05.69.14.1.09.15.336.15.73v4.323c0 .923-.107 1.534-.329 1.838-.217.304-.605.455-1.164.455-.28 0-.519-.06-.722-.182a1.337 1.337 0 0 1-.491-.56c.08.015.155.028.224.036.07.007.135.007.201.007.387 0 .698-.122.936-.37.239-.252.356-.58.356-.986 0-.433-.13-.776-.394-1.027-.262-.259-.618-.385-1.067-.385-.605 0-1.096.203-1.472.598-.377.401-.567.919-.567 1.562 0 .85.353 1.541 1.058 2.082.701.539 1.617.808 2.747.808.718 0 1.344-.081 1.876-.242.532-.16.978-.405 1.334-.73.314-.283.535-.625.67-1.024.135-.402.2-.978.2-1.733v-4.543c0-.37.052-.594.156-.678.104-.077.325-.119.66-.119h.476zM48.465 115.587h1.748c.062-.909.256-1.53.577-1.862.325-.332.895-.5 1.717-.5h1.362l-5.664 7.317h-.127c-.294 0-.512-.055-.646-.16-.132-.105-.28-.413-.446-.916l-2.392-7.68h-3.693l-2.681 7.708c-.128.37-.283.64-.456.804a.937.937 0 0 1-.653.245h-.377v1.446h4.561v-1.446h-.505c-.228 0-.404-.028-.528-.077-.125-.049-.187-.119-.187-.206 0-.067.01-.144.031-.231.021-.084.055-.2.11-.346l.322-.975h2.747l.366 1.094a1.543 1.543 0 0 1 .065.433c0 .119-.044.203-.13.245-.084.041-.322.063-.709.063h-.46v1.446h15.404v-4.088h-1.814c-.06 1.013-.26 1.705-.598 2.083-.339.37-.95.559-1.832.559H52.19l5.632-7.318v-1.44h-9.357v3.802zm-7.46 1.657l.87-3.09.93 3.09h-1.8zM67.389 119.096c-.094.35-.218.646-.377.887-.142.203-.349.35-.611.434-.266.083-.75.125-1.445.125H63.15v-3.18h.408c.47 0 .788.105.957.322.166.21.256.674.276 1.387h1.279v-4.658H64.79v.091c0 .57-.093.964-.276 1.188-.186.224-.511.335-.97.335h-.395v-2.802h1.613c.619 0 1.065.042 1.345.126.276.08.511.217.704.412.17.168.312.392.429.668.114.276.224.664.328 1.157h1.62v-3.802H58.475v1.439h.498c.363 0 .594.05.69.14.101.09.15.336.15.734v5.64c0 .377-.052.605-.16.685-.106.077-.327.119-.666.119h-.511v1.446h10.773v-4.21h-1.68c-.027.53-.09.967-.18 1.317M79.24 119.096c-.094.35-.218.646-.377.887-.141.203-.349.35-.611.434-.266.083-.747.125-1.448.125H75v-3.18h.407c.47 0 .788.105.957.322.162.21.26.674.277 1.387h1.278v-4.658h-1.278v.091c0 .57-.094.964-.277 1.188-.187.224-.511.335-.97.335H75v-2.802h1.613c.618 0 1.067.042 1.344.126.277.08.512.217.705.412.17.168.311.392.428.668.114.276.225.664.329 1.157h1.62v-3.802H70.326v1.439h.497c.363 0 .595.05.691.14.1.09.15.336.15.734v5.64c0 .377-.053.605-.16.685-.107.077-.328.119-.663.119h-.515v1.446H81.1v-4.21H79.42c-.028.53-.09.967-.18 1.317M104.625 120.382c-.135-.105-.284-.413-.446-.916l-2.391-7.68h-3.694l-2.684 7.708c-.128.37-.28.64-.456.804a.934.934 0 0 1-.65.245h-.038c.066-.3.097-.636.097-1.02 0-.042 0-.113-.007-.203-.003-.091-.007-.16-.007-.203h-1.033c0 .038.003.098.007.174.007.084.01.14.01.175 0 .35-.035.615-.103.786-.066.171-.17.263-.308.263-.145 0-.245-.074-.307-.217-.063-.14-.094-.392-.094-.759 0-1.212-.124-1.988-.369-2.33-.246-.336-.716-.55-1.406-.633.687-.143 1.219-.409 1.596-.8.376-.392.566-.877.566-1.447 0-.852-.307-1.489-.918-1.911-.612-.423-1.542-.633-2.782-.633h-7.031v1.44h.515c.359 0 .59.049.69.14.101.09.15.335.15.733v5.567c0 .395-.052.64-.152.734-.104.094-.332.143-.688.143h-.515v1.447h6.147v-1.447h-.58c-.353 0-.578-.05-.681-.143-.1-.095-.152-.34-.152-.734v-2.289h.916c.57 0 .943.095 1.126.28.18.188.27.622.27 1.303v.856c0 .838.21 1.454.635 1.838.425.388 1.099.58 2.025.58.87 0 1.503-.213 1.893-.643a1.14 1.14 0 0 0 .149-.188v.587h4.56v-1.447h-.5a1.47 1.47 0 0 1-.53-.077c-.124-.049-.186-.119-.186-.206 0-.067.01-.143.032-.23.017-.084.055-.2.11-.347l.318-.975h2.75l.363 1.094c.021.067.038.14.049.21.014.07.02.147.02.223 0 .12-.044.203-.13.245-.087.042-.322.063-.709.063h-.463v1.447h6.199v-1.447h-.536c-.298 0-.513-.055-.647-.16zm-15.528-4.683c-.255.196-.694.297-1.323.297h-.891v-2.701h1.002c.594 0 1.009.105 1.244.31.235.207.352.57.352 1.084 0 .472-.128.808-.384 1.01zm9.101 1.545l.868-3.09.93 3.09h-1.798zM117.011 117.474c1.434 0 2.488-.23 3.155-.685.667-.461.999-1.181.999-2.16 0-.974-.336-1.69-1.002-2.152-.67-.461-1.721-.692-3.152-.692h-6.696v1.44h.515c.36 0 .59.049.691.14.097.09.148.335.148.733v5.567c0 .395-.051.64-.151.734-.104.094-.332.143-.688.143h-.515v1.447h6.147v-1.447h-.58c-.353 0-.578-.05-.681-.143-.1-.095-.152-.34-.152-.734v-2.19h1.962zm-1.948-4.18h.729c.694 0 1.182.106 1.458.319.276.213.414.576.414 1.093 0 .546-.145.93-.439 1.16-.29.231-.787.347-1.492.347h-.67v-2.918zM131.44 113.225h.508c.36 0 .591.05.695.147.1.098.152.335.152.727v5.566c0 .392-.052.633-.156.731-.104.098-.335.147-.691.147h-.677c-.297 0-.515-.056-.646-.16-.135-.106-.284-.413-.446-.916l-2.394-7.681h-3.69l-2.685 7.709c-.128.37-.283.64-.456.803a.934.934 0 0 1-.65.245h-.38v1.447h4.561v-1.447h-.504c-.228 0-.404-.028-.529-.077-.12-.049-.183-.118-.183-.206 0-.067.01-.143.031-.23.018-.084.055-.2.11-.346l.319-.976h2.75l.363 1.094a1.428 1.428 0 0 1 .066.433c0 .12-.042.203-.128.245-.086.042-.325.063-.712.063h-.459v1.447H137.512v-1.447h-.498c-.363 0-.594-.049-.698-.147-.103-.097-.155-.339-.155-.73v-5.567c0-.391.048-.629.152-.727.103-.098.335-.147.701-.147h.498v-1.44h-6.071v1.44zm-7.242 4.019l.868-3.09.93 3.09h-1.798zM145.454 113.225h.58c.346 0 .574.042.681.13.108.083.16.331.16.74v4.56l-3.76-6.87h-5.055v1.44h.5c.364 0 .598.049.702.146.1.098.152.336.152.724v5.57c0 .391-.052.632-.156.73-.103.098-.338.147-.697.147h-.501v1.447h4.505v-1.447h-.452c-.36 0-.588-.05-.688-.143-.104-.095-.152-.34-.152-.734v-4.99l3.967 7.314h3.5v-7.894c0-.395.048-.64.152-.73.1-.091.331-.14.688-.14h.362v-1.44h-4.488v1.44zM150.492 115.65h1.51v-.049c0-.72.149-1.272.446-1.65.297-.377.725-.57 1.285-.57h.446v6.284c0 .423-.056.67-.162.755-.111.08-.336.122-.678.122h-.795v1.447h6.717v-1.447h-.854c-.362 0-.594-.049-.7-.146-.105-.098-.156-.34-.156-.73v-6.284h.445c.567 0 .999.192 1.3.573.296.381.449.93.449 1.646v.05h1.492v-3.866h-10.745v3.865zM170.912 116.72c-.636-.538-1.738-.986-3.314-1.35-.152-.03-.369-.076-.646-.139-1.13-.23-1.693-.573-1.693-1.031 0-.304.145-.556.44-.765.296-.21.67-.311 1.126-.311.78 0 1.399.178 1.866.527.466.357.784.895.95 1.618h1.717v-3.54h-1.465l-.273.51a7.06 7.06 0 0 0-1.597-.572 8.203 8.203 0 0 0-1.776-.186c-1.25 0-2.253.315-3.016.944-.76.629-1.14 1.457-1.14 2.48 0 .473.1.899.293 1.276.197.37.501.713.913 1.02.172.133.456.277.846.427.39.154.947.342 1.673.559.22.07.528.154.919.259 1.205.332 1.806.744 1.806 1.237 0 .314-.138.57-.414.769-.276.192-.646.29-1.11.29-.76 0-1.422-.22-1.986-.664-.563-.444-.964-1.06-1.206-1.849h-1.472v3.806h1.396l.38-.563c.55.273 1.102.482 1.662.618.56.137 1.143.203 1.748.203 1.324 0 2.374-.304 3.151-.915.781-.612 1.171-1.433 1.171-2.464.001-.922-.317-1.657-.949-2.194M171.841 96.836c-.037-.37-.037-.63-.037-.8a7.273 7.273 0 0 0-1.275-3.457c-.647-.968-1.272-1.503-1.835-1.611-.062.171-.214.685-.456 1.52-.214.867-.363 1.443-.404 1.79.622.279 1.164.663 1.592 1.118.564.594.888 1.223 1.016 1.887l-4.097.02c-.087.539-.156.86-.156.923a7.631 7.631 0 0 0-.062.84c-.042.474-.09.837-.107 1.05v1.074c0 .154.04.217.169.217l4.81-.022c.152 0 .286-.129.435-.384.107-.196.173-.43.238-.734.066-.3.087-.517.107-.664.025-.126.045-.3.045-.517.018-.126.038-.276.038-.405V97.626c0-.168 0-.43-.02-.79M163.356 100.009c.283-.79.435-1.692.435-2.705 0-.839-.262-1.692-.756-2.558-.346-.64-.86-1.307-1.53-1.992a4.949 4.949 0 0 0-.37-.392 38.813 38.813 0 0 0-2.654-2.313c-.024.063-.042.126-.09.19-.211.516-.363.922-.45 1.243-.086.367-.172.842-.234 1.44-.197.153-.501.688-.888 1.614-.477 1.076-.736 2.013-.736 2.813h-.19v-.025l-15.514.025h-1.012c0-.067-.028-.601-.09-1.656-.017-.297-.017-.647-.017-1.01l-.197-2.663c0-.109-.021-.685-.063-1.716-.024-.363-.024-.73-.044-1.118 0-.13 0-.255-.021-.388 0-.105-.024-.213-.045-.322-.066-.21-.153-.342-.239-.405-.152.168-.473.56-.93 1.202a11.73 11.73 0 0 0-.863 1.332c0 .233.024.709.045 1.394.041.71.065 1.293.065 1.74 0 .346.063 1.139.173 2.408.042.555.062 1.002.062 1.415 0 .363.045 1.139.083 2.32.028.514.049.943.049 1.31 0 .109.041.172.127.214.087.02.218.041.374.041h2.56l14.484-.02h3.51l3.113-.022h.429c.605.002 1.081-.45 1.424-1.396zm-4.271-3.327c-.262.322-.473.469-.629.469h-.066a1.85 1.85 0 0 1-.556-.21c-.325-.192-.505-.367-.505-.56 0-.125.135-.39.419-.747.259-.37.473-.56.642-.63.048-.017.09-.017.111-.017.304 0 .543.13.732.41.15.216.235.426.235.639 0 .111-.13.324-.383.646zm2.74.838c-.107 0-.221 0-.321-.024a7.497 7.497 0 0 1-.325-.06c-.176-.069-.28-.132-.346-.24-.044-.105-.066-.192-.086-.231v-.238c-.024-.304.107-.52.321-.691.042-.018.086-.046.152-.046a.51.51 0 0 1 .284.112c.127.105.255.259.383.472.242.391.366.688.394.947h-.456zM130.639 90.706l.26.168c.127-.105.431-.496.95-1.118l.752-.944-.884-.58c-.456-.339-.82-.622-1.079-.877-.09-.087-.152-.171-.214-.255l-.843.964c-.477.556-.774.986-.909 1.266.239.237.695.559 1.341.985l.626.391zM110.443 97.604c0 .37.021 1.143.086 2.32.022.518.022.944.022 1.311 0 .109.044.172.152.213.062.028.193.046.366.046h2.567l14.346-.018h5.051c.26-.625.494-1.251.708-1.894.218-.646.374-1.118.394-1.481l.15-1.16c.044-.448.061-.818.061-1.119 0-.426-.062-.88-.17-1.349-.13-.475-.28-.971-.517-1.464-.408-.919-.75-1.457-1.078-1.632-.108.126-.322.58-.67 1.352-.412.863-.692 1.46-.778 1.807.497.643.867 1.198 1.074 1.61.083.172.18.319.225.452.041.129.08.258.124.43v.122c0 .153-.017.216-.107.216h-4.467l-14.367.028h-1.036c0-.07-.021-.608-.087-1.66 0-.297-.024-.64-.024-1.006l-.19-2.663c0-.108-.024-.688-.069-1.723-.017-.363-.017-.727-.017-1.11 0-.134 0-.26-.028-.385-.017-.112-.04-.217-.058-.328-.07-.21-.131-.343-.221-.406-.17.175-.47.56-.926 1.202-.408.58-.688 1.014-.885 1.356 0 .213.024.685.066 1.374.045.709.066 1.289.066 1.736 0 .346.037 1.14.152 2.405.061.562.085 1.034.085 1.418M100.461 90.958l.477-.552.712-.839c.262.234.691.538 1.275.905l.777.486c.11-.126.428-.486.95-1.111l.753-.943-.884-.584c-.647-.45-1.079-.839-1.317-1.136l-.518.601c-.325.364-.58.664-.802.965l-.708-.518c-.608-.426-1.016-.79-1.206-1.048l-.822.965c-.477.58-.774.985-.909 1.268.242.234.691.58 1.32.99l.902.55zM106.753 92.045c-.107.087-.324.513-.608 1.268-.234.598-.449 1.16-.646 1.716.218.297.411.664.563 1.073.066.192.128.346.156.426.038.112.08.259.124.475a.713.713 0 0 1 .066.3c0 .022-.02.064-.066.11l-8.859.024c-.497 0-.946-.175-1.316-.518-.346-.321-.563-.664-.588-1.034-.041-.363-.041-.685-.041-.923v-.405c0-.084.024-.238.041-.45l.173-1.16-.321.017a7.419 7.419 0 0 0-.495.926 16.12 16.12 0 0 0-.435 1.31c-.107.455-.197.902-.242 1.35-.055.432-.082.862-.082 1.313.027.776.082 1.44.259 1.978.176.517.477.943.912 1.244.432.3.967.45 1.596.45l9.934-.02c.287-.647.522-1.374.739-2.17.193-.623.297-1.137.363-1.545.066-.28.086-.668.086-1.202v-1.119c0-.58-.193-1.29-.56-2.124-.32-.734-.584-1.177-.753-1.31M85.887 98.639c.15 1.286.218 2.317.218 3.09l.19.132c.56-.993.881-1.594.992-1.831.152-.364.283-.772.345-1.195.066-.437.11-1.077.11-1.937 0 0-.044-.604-.089-1.782-.02-.321-.02-.713-.02-1.16 0-.43-.042-.965-.104-1.61-.07-.651-.111-1.27-.177-1.87l-.082-.839c-.042-.255-.042-.451-.042-.58v-.427l-.176-.237-1.102 2.062-.712 1.394c0 .538.087 1.548.238 3.009l.411 3.78zM66.027 107.047c.107-.13.432-.497.95-1.119l.753-.943-.884-.58a11.666 11.666 0 0 1-1.078-.88 3.826 3.826 0 0 0-.239-.26l-.815.944c-.476.58-.777 1.013-.908 1.272.238.259.69.58 1.316 1.006l.646.388.26.172zM45.255 90.573l.65.385.255.174c.107-.108.436-.492.933-1.115l.753-.946a3.988 3.988 0 0 1-.432-.322 6.167 6.167 0 0 0-.321-.259c-.367-.28-.667-.496-.864-.643-.132-.083-.239-.195-.325-.258-.107-.109-.193-.172-.235-.234l-.843.964c-.476.56-.76.99-.88 1.248.234.259.666.58 1.309 1.006"/>
            <path d="M81.655 94.774c-.02-.346-.02-.647-.02-.923l1.513-2.348a7.98 7.98 0 0 0-.823-.874l-1.295-1.202a2.906 2.906 0 0 1-.17-.391.783.783 0 0 1-.066-.259v-.258l.021-.231-.193-.175c-.412.517-.778 1.14-1.103 1.845-.256.497-.432.95-.539 1.356.107.126.242.322.366.58.132.26.215.451.28.595.177.629.346 1.422.494 2.411.152.964.218 1.803.218 2.495 0 .018 0 .018-.017.042 0 .02-.025.02-.048.042H67.496c.193-.217.473-.37.86-.475.155-.063.415-.105.76-.147h.622l.843-2.642c-.37 0-.736-.028-1.1-.067l-1.143-.216a7.11 7.11 0 0 1-1.468-.56l-1.102-.555-.905-.455a1.389 1.389 0 0 0-.301-.059c-.066-.024-.173-.024-.28-.024-.415 0-.802.108-1.189.321a2.32 2.32 0 0 0-.864.818 5.129 5.129 0 0 0-.608 1.737c-.086.388-.104.864-.104 1.394l.197.091.404-.28c.2-.104.35-.174.48-.212.298-.067.602-.112.947-.112.342 0 .753.045 1.275.15l.947.217.086.02c-.02.043-.066.088-.086.127-.197.24-.387.454-.605.6-.28.245-.535.347-.753.347h-4.055l-8.085.024h-1.707l-.474-.042c-.13-.021-.217-.066-.259-.066-.044-.018-.086-.046-.152-.088-.297-.192-.622-.576-.964-1.139-.304-.468-.694-1.156-1.188-2.037-.09.108-.346.535-.778 1.331-.366.685-.605 1.14-.694 1.335.521.79.884 1.457 1.143 1.996.304.618.453 1.073.415 1.373-.045.322-.263.73-.65 1.181-.28.364-.649.73-1.057 1.098-.149.104-.28.216-.432.342-.345.28-.69.468-.988.6-.304.127-.67.193-1.085.193-.387 0-.712-.021-1.033-.108a3.322 3.322 0 0 1-.608-.19c-.104-.048-.214-.09-.304-.153-.062 0-.107.042-.145.084l-.066.09c.104.21.283.427.515.665.37.363.908.747 1.62 1.139 1.078.622 1.814.922 2.222.922.11 0 .197 0 .304-.02.173-.043.363-.133.563-.238.235-.126.453-.304.602-.496.456-.51.84-1.09 1.168-1.716.321-.625.6-1.352.84-2.17.061.07.148.108.303.146.149.05.28.07.405.07h2.508l8.06-.02h3.387a.562.562 0 0 0 .324-.088c.087-.038.173-.13.28-.241.239-.252.498-.64.754-1.133l.604-1.118c.021-.042.048-.063.066-.112.176-.318.349-.531.477-.64l.02 1.01c0 .238 0 .49.021.748v.905c0 .43.062.64.173.64l14.29-.021a.593.593 0 0 0 .322-.077.605.605 0 0 0 .221-.287 5.49 5.49 0 0 0 .3-1.11c.087-.497.173-1.056.239-1.681l.041-.382v-.58l-.083-1.29c-.069-.582-.11-1.03-.134-1.372M6.412 103.3l-.07.084v.021c.284.535 1 1.14 2.143 1.803 1.078.601 1.81.923 2.218.923.28 0 .56-.084.867-.259.239-.146.45-.322.602-.514a8.333 8.333 0 0 0 1.164-1.695c.328-.642.605-1.356.843-2.17a.754.754 0 0 0 .304.15 1.5 1.5 0 0 0 .41.064h1.38l1.119-.022h12.221l5.069-.02h3.348l1.596-.022c.26-.6.494-1.247.712-1.873.218-.64.346-1.132.387-1.478l.131-1.16c.042-.45.062-.839.062-1.143 0-.398-.044-.856-.169-1.328a8.242 8.242 0 0 0-.497-1.457c-.408-.926-.781-1.464-1.079-1.632-.11.122-.324.58-.69 1.349-.173.391-.325.71-.453.989-.156.345-.26.625-.329.817.131.13.218.276.329.405.349.48.6.885.773 1.206.087.172.15.322.197.45.063.11.108.256.128.43l.024.13c0 .13-.044.213-.11.213h-4.36l-5.087.021h-.974l-11.246.021h-1.707l-.477-.042c-.131-.042-.214-.066-.256-.083-.041-.022-.086-.042-.155-.084-.297-.2-.622-.56-.967-1.122-.305-.493-.716-1.157-1.19-2.037-.085.083-.344.538-.773 1.306-.37.692-.608 1.14-.694 1.356.521.793.888 1.461 1.147 1.996.3.625.453 1.073.407 1.373-.044.325-.259.71-.642 1.181-.373.472-.867.951-1.493 1.416a4.25 4.25 0 0 1-.991.625c-.3.13-.667.196-1.078.196-.39 0-.716-.042-1.061-.109a3.572 3.572 0 0 1-.885-.345.184.184 0 0 0-.148.07M37.335 105.09c-.628-.447-1.057-.814-1.295-1.111l-.519.577c-.28.324-.56.646-.79.967l-.716-.492c-.024 0-.024-.024-.044-.024-.584-.427-.971-.773-1.168-1.028l-.84.965c-.453.559-.777.985-.885 1.265.239.237.67.559 1.317.992l.884.56.498-.56.194-.241.497-.619c.277.252.712.56 1.293.923l.756.472c.128-.109.456-.472.95-1.115l.235-.28.518-.642-.518-.37-.367-.24zM1.319 90.66l.905.556.477-.576.58-.689.131-.15c.256.234.692.563 1.272.926l.777.472c.11-.108.408-.45.882-1.052.027-.02.048-.041.048-.066l.777-.947-.825-.535-.06-.038c-.649-.455-1.08-.846-1.32-1.143l-.517.605c-.277.384-.536.768-.799 1.136a1.235 1.235 0 0 1-.259-.238c-.045-.017-.062-.063-.107-.108a3.764 3.764 0 0 0-.345-.322c-.605-.447-1.016-.797-1.21-1.048l-.818.943c-.498.58-.774 1.01-.905 1.265.238.259.666.58 1.316 1.01M6.343 96.123c-.038-.685-.256-1.307-.667-1.908-.3-.433-.712-.88-1.247-1.335a2.162 2.162 0 0 1-.626-.748 3.813 3.813 0 0 0-.521.535c-.128.172-.28.364-.429.605-.411.64-.628 1.132-.628 1.545-.19.3-.388.643-.581 1.027a14.54 14.54 0 0 0-.584 1.335C.607 98.36.393 99.303.393 100.03c0 .175 0 .308.017.413.024.105.045.192.07.28.127.363.386.642.728.814.325.129.712.192 1.189.192a3.2 3.2 0 0 0 .885-.126 4.39 4.39 0 0 0 .908-.433c.515-.318.836-.622.992-.923.428-.769.732-1.412.884-1.929.107-.322.177-.65.218-.95.045-.217.045-.402.059-.64v-.605zm-2.395 1.656c-.23.042-.449.084-.666.084-.066.024-.107.024-.17.024-.131 0-.214 0-.26-.024-.065 0-.134-.021-.238-.042a.73.73 0 0 1-.41-.259.86.86 0 0 1-.17-.496c0-.188.103-.426.297-.727.086-.129.155-.237.238-.321.066-.088.132-.175.239-.259.172.105.324.217.473.3.242.175.435.322.584.469.325.328.536.667.667 1.013-.103.084-.28.175-.584.238z"/>
        </g>
    </g>
</svg>
