<svg xmlns="http://www.w3.org/2000/svg" width="90" height="64" viewBox="0 0 90 64">
    <g fill="none" fill-rule="evenodd">
        <path fill="#FFF" d="M44.945 11.633c4.6-.01 8.37 3.748 8.381 8.351.01 4.614-3.737 8.382-8.329 8.393-4.612.012-8.381-3.738-8.39-8.35-.011-4.602 3.735-8.37 8.338-8.394"/>
        <path fill="#FEFAD6" d="M52.318 20.684l12.632 1.15-1.884 1.327-10.824-1.908c.021-.173.065-.383.076-.569"/>
        <path fill="#FCEE21" d="M52.272 18.963l10.88-1.554 1.797 4.426-12.632-1.15c.044-.56.044-1.13-.045-1.7v-.022zM51.592 16.773l9.852-4.854 3.099 3.638-12.367 2.816a8.282 8.282 0 0 0-.584-1.6"/>
        <path fill="#FEFAD6" d="M52.176 18.373l12.367-2.816-1.39 1.852-10.88 1.556c-.031-.187-.055-.384-.097-.57v-.022z"/>
        <path fill="#FCEE21" d="M50.27 14.888l7.909-7.67 4.03 2.52-10.879 6.509c-.327-.483-.669-.953-1.06-1.36"/>
        <path fill="#FEFAD6" d="M51.33 16.246L62.21 9.738l-.765 2.181-9.851 4.854c-.078-.166-.174-.34-.263-.527"/>
        <path fill="#03A550" d="M48.418 13.506l5.158-9.751 4.657 1.162-8.392 9.565a8.375 8.375 0 0 0-1.402-.976h-.021z"/>
        <path fill="#CCE6D2" d="M49.84 14.482l8.393-9.565-.056 2.3-7.908 7.67c-.145-.142-.286-.284-.428-.405"/>
        <path fill="#03A550" d="M46.237 12.763l1.884-10.838 4.777-.362-4.987 11.692a8.297 8.297 0 0 0-1.674-.492"/>
        <path fill="#CCE6D2" d="M47.911 13.255l4.987-11.691.678 2.191-5.16 9.751c-.174-.076-.34-.174-.505-.241v-.01z"/>
        <path fill="#03A550" d="M43.958 12.73l-1.58-10.914 4.44-1.797-1.15 12.666a8.815 8.815 0 0 0-1.71.045"/>
        <path fill="#CCE6D2" d="M45.668 12.686L46.818.019l1.303 1.906-1.883 10.839c.02 0 0 0 0 0a7.358 7.358 0 0 0-.57-.078"/>
        <path fill="#03A550" d="M41.743 13.409L36.9 3.514 40.55.434l2.817 12.405a9.864 9.864 0 0 0-1.624.57"/>
        <path fill="#CCE6D2" d="M43.366 12.84L40.55.433l1.827 1.382 1.58 10.914c-.207.043-.384.066-.59.11"/>
        <path fill="#03A550" d="M39.872 14.733l-7.682-7.9 2.53-4.063 6.511 10.924a7.825 7.825 0 0 0-1.36 1.04"/>
        <path fill="#CCE6D2" d="M41.231 13.694L34.721 2.77l2.178.744 4.844 9.895c-.163.077-.35.187-.512.285"/>
        <path fill="#0168A5" d="M38.501 16.587l-9.773-5.15 1.14-4.657 9.597 8.383a7.256 7.256 0 0 0-.964 1.379v.045z"/>
        <path fill="#B9D1EB" d="M39.465 15.163L29.868 6.78l2.322.053 7.682 7.9a7.136 7.136 0 0 0-.407.43"/>
        <path fill="#0168A5" d="M37.746 18.757l-10.88-1.896-.34-4.768 11.711 5.019a7.78 7.78 0 0 0-.491 1.645"/>
        <path fill="#B9D1EB" d="M38.237 17.112l-11.712-5.019 2.203-.655 9.773 5.149c-.108.165-.188.34-.264.525"/>
        <path fill="#0168A5" d="M37.713 21.057l-10.934 1.568-1.797-4.438 12.688 1.16a7.39 7.39 0 0 0 .043 1.71"/>
        <path fill="#B9D1EB" d="M37.67 19.348L24.98 18.187l1.884-1.326 10.879 1.897c0-.023 0 0 0 0-.031.206-.055.382-.074.59"/>
        <path fill="#0168A5" d="M38.393 23.249l-9.906 4.855-3.1-3.672 12.435-2.816c.119.592.33 1.118.57 1.644v-.011z"/>
        <path fill="#B9D1EB" d="M37.822 21.616l-12.435 2.816 1.392-1.807 10.934-1.569c.022.198.065.407.109.56"/>
        <path fill="#0168A5" d="M39.718 25.133l-7.922 7.671-4.075-2.532 10.956-6.498c.283.505.656.955 1.041 1.36"/>
        <path fill="#B9D1EB" d="M38.677 23.774L27.72 30.273l.766-2.17 9.906-4.853c.085.174.184.36.284.524"/>
        <path fill="#EB2227" d="M41.558 26.503l-5.161 9.741-4.645-1.128 8.394-9.589c.425.396.919.714 1.412.976"/>
        <path fill="#FBD3C1" d="M40.145 25.527l-8.393 9.589.044-2.312 7.922-7.67c.141.155.284.263.426.415v-.022z"/>
        <path fill="#EB2227" d="M43.726 27.248l-1.884 10.87-4.765.34 5.027-11.692a7.85 7.85 0 0 0 1.622.482h.024-.024z"/>
        <path fill="#FBD3C1" d="M42.104 26.767l-5.027 11.69-.68-2.213 5.161-9.74c.176.099.362.188.546.263"/>
        <path fill="#EB2227" d="M46.038 27.281l1.557 10.923-4.417 1.789 1.141-12.669a6.447 6.447 0 0 0 1.72-.043"/>
        <path fill="#FBD3C1" d="M44.32 27.324l-1.142 12.669-1.336-1.876 1.884-10.869c.212.043.407.066.615.076h-.022z"/>
        <path fill="#EB2227" d="M48.23 26.612l4.867 9.896-3.672 3.056-2.815-12.38a7.91 7.91 0 0 0 1.643-.572h-.023z"/>
        <path fill="#FBD3C1" d="M46.61 27.184l2.815 12.38-1.83-1.36-1.556-10.923c.198-.022.383-.054.593-.097h-.022z"/>
        <path fill="#EB2227" d="M50.115 25.287l7.691 7.89-2.53 4.085-6.54-10.944a7.445 7.445 0 0 0 1.38-1.03"/>
        <path fill="#FBD3C1" d="M48.736 26.317l6.54 10.945-2.18-.754-4.866-9.895c.188-.11.352-.187.526-.296h-.02z"/>
        <path fill="#FCEE21" d="M51.495 23.435l9.752 5.172-1.152 4.624-9.575-8.37c.382-.429.713-.92.975-1.426"/>
        <path fill="#FEFAD6" d="M50.52 24.86l9.575 8.37-2.289-.053-7.69-7.89c.14-.142.283-.285.404-.426"/>
        <path fill="#FCEE21" d="M52.242 21.254l10.824 1.907.349 4.767-11.658-5.029a7.65 7.65 0 0 0 .485-1.645"/>
        <path fill="#FEFAD6" d="M51.757 22.9l11.658 5.028-2.168.68-9.752-5.173c.097-.186.186-.35.284-.536h-.022z"/>
        <path fill="#CCE6D2" d="M39.859 16.927v-1.305l3.901-.022v1.338a3.527 3.527 0 0 0-2.99 3.517c0 1.742 1.282 3.243 3.012 3.486v1.325c-2.355.023-4.295-1.886-4.295-4.24-.01-1.952 1.27-3.595 3.124-4.112l-2.752.013z"/>
        <path fill="#03A550" d="M46.214 25.253h.043a3.871 3.871 0 0 0 3.848-3.625l.01-6.048-3.923.01v1.314h2.598l.022 4.306v.143c0 1.413-1.172 2.576-2.598 2.576v1.324z"/>
        <path fill="#FCEE21" d="M41.898 19.24c.12 0-.22-.407-.12-.407.142-.12.404-.022.523-.142.076-.23.593-.45.165-.11.242-.196.22-.57.407-.668.383.197.669.46 1.065.668.052.078.258.22.381.404.143-.02.734-.227.884-.25.235.044.168.263.376.328.206.264.414.887.537 1.074 0 .066.375-.077.375 0 .195.242.457-.735.667-.493.285.022-.044.57.24.57.108.066.634.165.712.197-.242.373-.768 1.37-1.009 1.732-.14.141-.491.45-.996.416-.275.438-.56.285-.902.525-.043-.043-.544.647-.588.647-.12.133-.408-.7-.515-.603-.032-.098-.077-.218-.123-.35a4.918 4.918 0 0 1-.238-.263c-.23-.262-.45-.505-.669-.768-.043-.24-.087-.482-.134-.733a7.199 7.199 0 0 0-.47-.383 20.199 20.199 0 0 0-.304-.725c-.125-.098-.22-.185-.343-.284.036-.143.056-.263.08-.383"/>
        <path fill="#CCE6D2" d="M44.813 19.699a1.072 1.072 0 0 1 1.084 1.084c0 .613-.471 1.118-1.084 1.129a1.103 1.103 0 0 1-1.098-1.117c0-.615.481-1.096 1.098-1.096"/>
        <g fill="#231F20" fill-rule="nonzero">
            <path d="M10.095 62.383c-.05.184-.128.33-.23.437a.626.626 0 0 1-.323.181c-.136.037-.37.055-.702.055h-.358v-3.36c0-.192.028-.307.082-.35.054-.04.17-.062.345-.062h.304v-.745H5.997v.745h.269c.19 0 .309.025.361.072.053.047.078.174.078.38v2.88c0 .205-.025.331-.08.38-.052.049-.173.074-.36.074H5.94c-.156 0-.268-.029-.338-.083-.071-.054-.147-.213-.234-.474L4.116 58.54H2.183L.78 62.528c-.068.191-.148.33-.24.416a.489.489 0 0 1-.34.126H.001v.749H2.39v-.749h-.264a.782.782 0 0 1-.277-.04c-.065-.025-.098-.06-.098-.106a.52.52 0 0 1 .017-.12 1.63 1.63 0 0 1 .057-.179l.169-.504H3.43l.192.566a.79.79 0 0 1 .034.224c0 .062-.024.105-.069.127-.045.021-.168.032-.37.032h-.24v.749h8.05v-2.203H10.2a3.705 3.705 0 0 1-.105.767zm-7.857-1.02l.455-1.598.485 1.598h-.94zM11.757 61.349h2.328V62.6h-2.328zM19.62 59.284v-.745h-3.192v.745h.3c.19 0 .31.025.362.072.052.047.078.174.078.378v2.237c0 .477-.056.794-.172.951-.114.157-.316.235-.61.235a.722.722 0 0 1-.377-.094.694.694 0 0 1-.257-.29c.042.008.081.015.118.019.036.004.07.004.105.004a.65.65 0 0 0 .49-.192c.124-.13.186-.3.186-.51 0-.224-.069-.402-.206-.532-.138-.133-.324-.198-.56-.198-.316 0-.572.105-.77.309-.196.208-.296.475-.296.808 0 .44.185.797.554 1.078.367.278.846.417 1.437.417.376 0 .703-.041.982-.125.278-.083.511-.21.698-.378a1.23 1.23 0 0 0 .35-.53c.07-.207.105-.506.105-.896v-2.351c0-.191.027-.307.082-.35.054-.04.17-.062.345-.062h.249zM25.36 60.506h.914c.033-.47.134-.792.302-.964.17-.171.468-.258.899-.258h.712l-2.963 3.786h-.067c-.154 0-.268-.029-.338-.083-.069-.054-.147-.213-.233-.474l-1.252-3.974h-1.932l-1.403 3.989c-.067.191-.148.33-.239.416a.493.493 0 0 1-.342.126h-.197v.749h2.387v-.749h-.264a.784.784 0 0 1-.277-.04c-.065-.025-.097-.06-.097-.106a.52.52 0 0 1 .016-.12 1.59 1.59 0 0 1 .058-.179l.168-.504h1.437l.192.566a.79.79 0 0 1 .034.224c0 .062-.023.105-.069.127-.043.021-.168.032-.37.032h-.24v.749h8.059v-2.116h-.95c-.03.525-.135.883-.312 1.078-.177.192-.497.29-.958.29h-.727l2.947-3.787v-.745h-4.896v1.967zm-3.904.857l.456-1.598.486 1.598h-.942zM35.261 62.322c-.048.18-.113.334-.197.459a.602.602 0 0 1-.32.224c-.139.043-.392.065-.755.065h-.946v-1.645h.214c.245 0 .412.054.5.166.087.109.134.349.145.718h.669v-2.41h-.67v.047c0 .294-.048.499-.144.614-.097.116-.267.174-.508.174h-.206v-1.45H33.887c.324 0 .557.022.704.065a.84.84 0 0 1 .368.213c.089.087.163.203.225.346.06.143.117.344.171.598h.848V58.54h-5.606v.745h.26c.19 0 .311.025.362.072.052.047.078.174.078.38V62.654c0 .196-.027.313-.083.355-.056.04-.172.061-.35.061h-.267v.749h5.637V61.64h-.878c-.015.275-.048.5-.095.682M41.463 62.322a1.56 1.56 0 0 1-.197.459.602.602 0 0 1-.32.224c-.14.043-.39.065-.758.065h-.944v-1.645h.214c.246 0 .412.054.5.166.085.109.136.349.145.718h.67v-2.41h-.67v.047c0 .294-.049.499-.144.614-.098.116-.268.174-.509.174h-.206v-1.45H40.088c.324 0 .56.022.704.065a.84.84 0 0 1 .369.213c.089.087.163.203.224.346.06.143.118.344.172.598h.848V58.54h-5.607v.745h.26c.19 0 .312.025.362.072.053.047.078.174.078.38V62.654c0 .196-.027.313-.083.355-.056.04-.172.061-.347.061h-.27v.749h5.638V61.64h-.879c-.015.275-.047.5-.094.682M54.745 62.987c-.07-.054-.148-.213-.233-.474l-1.25-3.974h-1.934l-1.404 3.989c-.067.191-.147.33-.239.416a.492.492 0 0 1-.34.126h-.02c.035-.155.051-.329.051-.528 0-.021 0-.058-.004-.105l-.003-.105h-.54l.003.09.005.091c0 .181-.018.318-.054.407-.034.089-.089.136-.16.136-.077 0-.13-.038-.162-.113-.032-.072-.049-.202-.049-.392 0-.627-.065-1.029-.193-1.206-.129-.174-.374-.284-.736-.327.36-.074.638-.212.835-.414.197-.203.297-.454.297-.749 0-.44-.16-.77-.48-.989-.321-.219-.807-.327-1.456-.327h-3.68v.745h.27c.188 0 .309.025.362.072.052.047.077.174.077.38v2.88c0 .204-.027.331-.08.38-.053.049-.173.074-.359.074h-.27v.748h3.217v-.748h-.304c-.184 0-.302-.026-.356-.074-.052-.049-.08-.176-.08-.38v-1.184h.48c.298 0 .493.049.589.144.094.098.141.322.141.675v.443c0 .434.11.752.333.95.222.202.575.301 1.06.301.455 0 .786-.11.99-.333a.59.59 0 0 0 .078-.097v.303h2.386v-.748h-.262a.777.777 0 0 1-.277-.04c-.065-.025-.097-.061-.097-.107a.52.52 0 0 1 .016-.119c.009-.043.029-.103.058-.179l.166-.504h1.44l.19.566c.01.034.02.072.025.108a.593.593 0 0 1 .01.116c0 .061-.023.105-.068.126-.045.022-.168.033-.37.033h-.243v.748h3.244v-.748h-.28c-.157 0-.269-.029-.34-.083zm-8.124-2.423c-.134.101-.364.154-.693.154h-.466V59.32h.524c.311 0 .528.054.651.16.123.107.185.295.185.561 0 .245-.068.418-.201.523zm4.762.8l.454-1.6.486 1.6h-.94zM61.227 61.483c.75 0 1.302-.12 1.65-.355.35-.239.523-.611.523-1.117 0-.505-.175-.876-.524-1.114-.351-.239-.9-.358-1.65-.358h-3.503v.745h.27c.187 0 .308.025.361.072.05.047.078.174.078.38v2.88c0 .204-.027.331-.08.38-.054.049-.173.074-.36.074h-.269v.748h3.216v-.748h-.303c-.185 0-.302-.026-.357-.074-.052-.049-.08-.176-.08-.38v-1.134h1.028zm-1.02-2.163h.382c.363 0 .618.054.763.165.144.11.217.298.217.565 0 .283-.076.481-.23.6-.152.12-.412.18-.781.18h-.35v-1.51zM68.777 59.284h.266c.188 0 .309.025.363.076.052.05.08.173.08.376v2.88c0 .203-.028.328-.082.378-.054.051-.175.076-.361.076h-.355c-.155 0-.27-.029-.338-.083-.07-.054-.148-.213-.233-.474l-1.253-3.974h-1.93l-1.406 3.989c-.066.191-.148.33-.238.416a.492.492 0 0 1-.34.127h-.199v.748h2.387v-.748h-.264a.784.784 0 0 1-.277-.04c-.063-.026-.096-.062-.096-.107 0-.034.006-.074.017-.12.009-.043.028-.103.057-.178l.167-.505h1.439l.19.566a.732.732 0 0 1 .034.224c0 .062-.021.105-.067.127-.045.021-.17.033-.372.033h-.24v.748h6.228v-.748h-.26c-.19 0-.311-.026-.366-.076-.054-.051-.081-.176-.081-.378v-2.88c0-.203.025-.326.08-.377.054-.05.175-.076.367-.076h.26v-.745h-3.177v.745zm-3.79 2.08l.454-1.6.487 1.6h-.94zM76.11 59.284h.304c.18 0 .3.022.356.067.056.043.083.171.083.383v2.36l-1.967-3.555H72.24v.745h.262c.19 0 .312.025.367.076.052.05.08.173.08.374v2.882c0 .203-.028.327-.082.378-.054.05-.177.076-.365.076h-.262v.748h2.357v-.748h-.237c-.188 0-.307-.026-.36-.074-.054-.049-.079-.176-.079-.38v-2.582l2.075 3.785h1.832v-4.085c0-.204.025-.331.08-.378.052-.047.173-.072.36-.072h.19v-.745h-2.35v.745zM78.746 60.539h.79v-.026c0-.372.078-.658.233-.853.156-.195.38-.295.673-.295h.233v3.251c0 .22-.029.347-.085.39-.058.042-.175.064-.355.064h-.415v.749h3.514v-.749h-.446c-.19 0-.311-.025-.367-.076-.055-.05-.082-.175-.082-.378v-3.25h.233c.297 0 .523.099.68.296.156.197.235.48.235.851v.026h.781v-2h-5.622v2zM89.43 61.092c-.332-.278-.909-.51-1.733-.698-.08-.016-.193-.04-.338-.072-.591-.12-.886-.297-.886-.534 0-.157.076-.287.23-.396.155-.108.35-.16.589-.16.409 0 .732.092.976.272.244.185.41.463.497.838h.899V58.51h-.767l-.143.264a3.722 3.722 0 0 0-.835-.297 4.339 4.339 0 0 0-.929-.095c-.655 0-1.179.162-1.579.488-.397.325-.596.754-.596 1.283 0 .245.052.465.154.66.103.192.262.37.477.528.09.07.238.143.443.221.204.08.495.177.875.29.116.035.277.079.48.133.632.172.946.385.946.64a.469.469 0 0 1-.217.398c-.144.1-.338.15-.58.15-.398 0-.745-.114-1.04-.343-.294-.23-.504-.548-.63-.957h-.77v1.97h.73l.198-.292c.288.141.577.25.87.32.293.07.598.105.915.105.692 0 1.242-.157 1.649-.474.408-.316.612-.741.612-1.274.001-.478-.165-.858-.496-1.136M89.917 50.803c-.02-.191-.02-.325-.02-.414a3.737 3.737 0 0 0-.667-1.788c-.338-.5-.665-.777-.96-.834a20.33 20.33 0 0 0-.238.787c-.113.448-.19.747-.212.926.325.144.61.343.833.578.295.308.465.633.532.977l-2.144.01c-.045.28-.082.446-.082.478-.02.167-.032.315-.032.434-.022.246-.047.434-.056.544v.555c0 .08.021.113.088.113l2.517-.011c.08 0 .15-.067.228-.2.056-.1.09-.221.125-.379.034-.155.045-.267.056-.343.012-.066.023-.156.023-.268.01-.065.02-.143.02-.21v-.546c0-.087 0-.222-.011-.409M85.477 52.445c.148-.408.228-.875.228-1.4 0-.433-.138-.874-.396-1.323-.181-.33-.45-.676-.801-1.03a2.573 2.573 0 0 0-.194-.203c-.35-.333-.8-.732-1.388-1.197-.013.033-.022.065-.047.098-.11.267-.19.477-.235.643a5.87 5.87 0 0 0-.123.745c-.103.08-.262.356-.465.836-.249.557-.385 1.041-.385 1.455h-.1v-.013l-8.117.013h-.53c0-.034-.014-.31-.046-.857-.01-.154-.01-.334-.01-.523l-.103-1.377c0-.056-.01-.355-.032-.888-.013-.188-.013-.378-.024-.579 0-.067 0-.132-.01-.2 0-.055-.013-.11-.024-.167-.035-.108-.08-.177-.125-.21a7.37 7.37 0 0 0-.486.622c-.214.29-.362.521-.452.69 0 .12.012.366.023.72.022.368.035.67.035.901 0 .18.032.59.09 1.246.022.287.032.519.032.732 0 .188.024.59.044 1.2.014.267.025.489.025.679 0 .056.022.089.067.11a.86.86 0 0 0 .195.022h1.34l7.579-.011h1.837l1.629-.01h.224c.316 0 .566-.234.745-.724zm-2.235-1.72c-.137.165-.248.241-.329.241h-.034a.975.975 0 0 1-.292-.108c-.17-.1-.264-.19-.264-.29 0-.065.071-.202.22-.386.135-.192.247-.29.336-.326.025-.009.047-.009.058-.009a.44.44 0 0 1 .383.212c.078.112.123.22.123.33 0 .058-.069.169-.2.335zm1.434.433c-.056 0-.116 0-.168-.013a3.963 3.963 0 0 1-.17-.03c-.092-.036-.147-.069-.181-.125-.023-.054-.035-.1-.045-.12v-.122c-.013-.158.056-.27.168-.358.022-.01.045-.024.08-.024.045 0 .102.024.148.058a.931.931 0 0 1 .2.244c.127.203.192.356.207.49h-.24zM68.358 47.632l.135.087c.067-.054.226-.257.497-.579l.394-.488-.463-.3a5.632 5.632 0 0 1-.564-.454c-.047-.045-.08-.089-.112-.132l-.44.5c-.25.287-.406.51-.476.654.124.123.363.289.701.51l.328.202zM57.79 51.201c0 .192.011.591.045 1.201.011.268.011.488.011.678 0 .056.024.089.08.11a.554.554 0 0 0 .191.024h1.344l7.506-.01h2.643c.136-.323.259-.647.37-.98.115-.334.196-.578.207-.766l.078-.6c.023-.232.032-.423.032-.579 0-.22-.032-.456-.088-.698a4.358 4.358 0 0 0-.271-.757c-.214-.476-.393-.754-.564-.845-.057.065-.169.3-.351.7-.215.446-.362.756-.407.935.26.332.454.62.562.833.043.089.094.165.118.233.021.067.041.134.065.223v.063c0 .08-.01.112-.056.112h-2.338l-7.517.015h-.542c0-.037-.012-.315-.046-.86 0-.153-.012-.33-.012-.52l-.1-1.378c0-.056-.012-.356-.036-.891-.009-.188-.009-.376-.009-.575 0-.069 0-.134-.014-.199-.01-.058-.022-.112-.031-.17-.036-.108-.069-.177-.116-.21a6.31 6.31 0 0 0-.484.622c-.214.3-.36.525-.463.702 0 .11.012.354.034.71.024.367.035.668.035.9 0 .178.02.589.08 1.243.032.291.044.535.044.734M52.567 47.762l.25-.285.372-.434c.137.12.362.278.667.468l.407.251c.058-.065.224-.251.497-.575l.394-.488-.463-.302c-.338-.233-.564-.434-.689-.587l-.271.31c-.17.189-.304.344-.42.5l-.37-.268c-.318-.22-.531-.409-.631-.542l-.43.499c-.25.3-.405.51-.476.656.127.121.362.3.69.512l.473.285zM55.86 48.324c-.057.046-.17.266-.319.657-.123.31-.235.6-.338.888.114.153.215.343.295.555.034.1.066.179.081.22.02.058.042.134.065.246.024.055.035.1.035.156 0 .01-.011.032-.035.056l-4.635.012a.996.996 0 0 1-.69-.267c-.18-.167-.294-.344-.307-.535-.021-.188-.021-.355-.021-.478v-.21c0-.043.012-.122.021-.233l.09-.6-.167.009a3.825 3.825 0 0 0-.259.48c-.08.21-.159.433-.228.677a5.354 5.354 0 0 0-.126.698 5.28 5.28 0 0 0-.044.68c.015.402.044.745.136 1.024.092.267.25.488.477.643.226.156.507.233.836.233l5.197-.01c.15-.335.273-.711.387-1.123.101-.322.156-.588.19-.8.035-.144.045-.345.045-.622v-.578c0-.3-.1-.667-.292-1.1-.169-.38-.306-.609-.395-.678M44.941 51.737c.078.665.114 1.198.114 1.598l.1.069c.292-.514.46-.825.518-.948.08-.188.149-.4.181-.618a6.97 6.97 0 0 0 .058-1.002s-.023-.313-.047-.922c-.01-.167-.01-.369-.01-.6 0-.223-.023-.5-.055-.834-.036-.336-.058-.656-.092-.967l-.044-.434c-.021-.132-.021-.234-.021-.3v-.221l-.092-.123-.577 1.067-.373.721c0 .279.046.801.125 1.557l.215 1.957zM34.55 56.087c.055-.067.225-.257.496-.579l.394-.488-.462-.3a6.09 6.09 0 0 1-.565-.456c-.045-.054-.09-.1-.124-.134l-.427.489c-.25.3-.407.524-.475.658.124.134.361.3.688.52l.338.201.136.089zM23.68 47.563l.34.2.133.09c.057-.057.228-.256.489-.577l.394-.49a2.086 2.086 0 0 1-.226-.167 3.221 3.221 0 0 0-.169-.134c-.191-.144-.348-.256-.452-.332-.068-.044-.124-.101-.17-.134-.055-.056-.1-.089-.122-.121l-.441.499c-.25.29-.398.512-.461.645.122.134.348.3.685.521"/>
            <path d="M42.726 49.737c-.01-.18-.01-.335-.01-.478l.791-1.215a4.148 4.148 0 0 0-.43-.452l-.678-.622a1.495 1.495 0 0 1-.089-.202.402.402 0 0 1-.034-.134V46.5l.01-.12-.1-.09c-.216.268-.407.59-.577.955a3.476 3.476 0 0 0-.282.702c.056.065.126.166.191.3.07.134.113.233.147.307.092.326.18.736.258 1.248.08.499.114.933.114 1.291 0 .01 0 .01-.009.022 0 .01-.012.01-.025.021h-6.686c.102-.112.248-.191.45-.246.082-.032.218-.054.398-.075h.326l.44-1.368c-.193 0-.384-.014-.574-.034l-.599-.112a3.747 3.747 0 0 1-.768-.29l-.577-.287-.473-.235a.734.734 0 0 0-.158-.03c-.034-.013-.09-.013-.146-.013-.217 0-.42.056-.622.166-.2.112-.35.257-.452.423-.158.279-.27.579-.318.899-.046.2-.055.447-.055.721l.103.047.212-.144c.105-.054.182-.09.251-.11.156-.035.315-.058.495-.058s.394.023.667.077l.496.112.045.011c-.01.022-.034.046-.045.066a1.56 1.56 0 0 1-.316.31c-.147.127-.28.18-.395.18H31.58l-4.23.012h-.893l-.248-.021c-.069-.011-.114-.035-.136-.035-.023-.009-.045-.023-.08-.045-.155-.1-.324-.298-.504-.59a21.504 21.504 0 0 1-.621-1.054c-.047.056-.181.277-.407.69-.192.354-.317.589-.364.69.273.409.463.754.599 1.032.159.32.237.556.217.711-.024.167-.138.378-.34.611-.147.188-.34.378-.553.568-.078.054-.147.112-.227.177-.18.145-.361.242-.516.311-.16.065-.351.1-.568.1a2.04 2.04 0 0 1-.54-.056 1.753 1.753 0 0 1-.319-.098c-.054-.025-.112-.047-.16-.08-.032 0-.055.022-.075.044l-.034.047c.054.108.148.22.269.343.193.188.475.387.848.59.564.321.949.477 1.162.477.058 0 .104 0 .16-.01.09-.023.19-.07.294-.124.123-.065.237-.157.315-.257.239-.263.44-.564.611-.887.168-.324.315-.7.44-1.123.032.036.077.056.158.076a.672.672 0 0 0 .212.036h1.313l4.217-.011h1.772a.297.297 0 0 0 .17-.045c.045-.02.09-.067.147-.125.124-.13.26-.331.394-.586l.316-.579c.01-.021.025-.032.034-.058.093-.164.183-.274.25-.33l.01.522c0 .123 0 .253.012.387v.468c0 .223.032.331.09.331l7.478-.01a.313.313 0 0 0 .168-.04.314.314 0 0 0 .116-.149c.054-.132.112-.32.157-.575.045-.256.09-.546.124-.87l.022-.197v-.3l-.043-.667a15.137 15.137 0 0 1-.07-.71M3.355 54.148l-.036.044v.01c.148.278.522.59 1.12.934.565.31.948.477 1.162.477a.915.915 0 0 0 .453-.134c.125-.076.235-.166.315-.266a4.31 4.31 0 0 0 .61-.877 6.36 6.36 0 0 0 .44-1.122c.022.021.08.056.16.077a.793.793 0 0 0 .214.033h.722l.585-.011h6.395l2.652-.01H19.9l.836-.012c.135-.31.258-.645.372-.97.114-.33.18-.585.203-.764l.068-.6c.022-.233.033-.434.033-.591 0-.207-.024-.444-.089-.688a4.232 4.232 0 0 0-.26-.754c-.213-.479-.409-.757-.564-.844-.058.063-.17.3-.362.698-.09.202-.17.367-.237.512a5.615 5.615 0 0 0-.172.423c.07.066.114.142.172.21.183.247.315.457.405.623.045.089.078.167.103.233a.589.589 0 0 1 .067.223l.013.066c0 .067-.024.11-.058.11h-2.282l-2.661.012h-.51l-5.885.01h-.893l-.25-.021c-.068-.022-.111-.034-.133-.043-.022-.011-.045-.022-.081-.044-.156-.103-.326-.289-.506-.58-.16-.255-.375-.599-.622-1.054-.046.043-.181.278-.405.676-.194.358-.319.59-.364.701.273.41.465.756.6 1.033.158.324.237.555.214.71-.024.169-.136.368-.336.612a4.105 4.105 0 0 1-.781.732c-.18.147-.362.257-.52.324a1.45 1.45 0 0 1-.563.101c-.205 0-.375-.022-.555-.056-.17-.045-.326-.1-.463-.179a.097.097 0 0 0-.078.036M19.536 55.074c-.329-.23-.553-.42-.678-.574l-.271.298c-.147.168-.293.334-.414.5l-.374-.254c-.013 0-.013-.013-.024-.013-.305-.22-.508-.4-.61-.531l-.44.499c-.237.29-.407.51-.463.654.125.123.35.29.689.514l.463.29.26-.29.101-.125.26-.32c.145.13.373.29.677.477l.396.245c.067-.056.238-.245.497-.577l.123-.145.271-.332-.271-.192-.192-.124zM.69 47.609l.474.287.25-.299.303-.356.069-.077c.133.12.361.29.665.479l.407.244a7.62 7.62 0 0 0 .46-.544c.015-.011.026-.022.026-.035l.407-.49-.432-.276-.031-.02c-.34-.235-.566-.438-.69-.591l-.272.313c-.144.198-.28.397-.417.587a.644.644 0 0 1-.136-.123c-.024-.009-.033-.032-.056-.056a1.962 1.962 0 0 0-.18-.166c-.317-.232-.532-.412-.634-.543l-.428.489c-.26.3-.405.522-.474.654.125.134.35.3.69.523M3.319 50.435a1.876 1.876 0 0 0-.349-.988 3.66 3.66 0 0 0-.653-.69 1.122 1.122 0 0 1-.327-.387c-.081.065-.17.154-.273.277-.067.088-.146.188-.224.313-.215.33-.329.586-.329.799-.1.155-.203.333-.304.532a7.48 7.48 0 0 0-.305.69c-.237.611-.35 1.1-.35 1.476 0 .09 0 .159.01.213.012.054.023.1.036.145a.748.748 0 0 0 .381.421c.17.067.373.1.622.1.16 0 .306-.022.463-.066.16-.056.315-.123.476-.224.269-.164.437-.322.518-.477.225-.398.384-.73.463-.998.056-.167.093-.337.114-.492.024-.112.024-.208.031-.331v-.313zm-1.253.857c-.121.021-.235.043-.349.043-.034.013-.056.013-.089.013-.068 0-.112 0-.135-.013-.035 0-.07-.01-.125-.022a.383.383 0 0 1-.215-.133.442.442 0 0 1-.089-.257c0-.098.054-.22.156-.376.045-.067.081-.123.124-.167.035-.045.07-.09.125-.133.09.054.17.112.248.155.126.09.228.166.305.242.17.17.28.346.35.525a.71.71 0 0 1-.306.123z"/>
        </g>
    </g>
</svg>
