<?xml version="1.0" encoding="UTF-8"?>
<svg width="37px" height="36px" viewBox="0 0 37 36" version="1.1" xmlns="http://www.w3.org/2000/svg" xmlns:xlink="http://www.w3.org/1999/xlink">
    <!-- Generator: Sketch 55.2 (78181) - https://sketchapp.com -->
    <title>Group 3</title>
    <desc>Created with Sketch.</desc>
    <defs>
        <linearGradient x1="49.8860457%" y1="79.270031%" x2="49.8936434%" y2="21.7571191%" id="linearGradient-1">
            <stop stop-color="#E30613" offset="0%"></stop>
            <stop stop-color="#FBBB21" offset="100%"></stop>
        </linearGradient>
        <linearGradient x1="134.835059%" y1="51.866458%" x2="34.495435%" y2="51.9163456%" id="linearGradient-2">
            <stop stop-color="#E63323" offset="0%"></stop>
            <stop stop-color="#7F1810" offset="100%"></stop>
        </linearGradient>
        <linearGradient x1="78.8069963%" y1="50.7820757%" x2="19.7131735%" y2="50.7815511%" id="linearGradient-3">
            <stop stop-color="#E63323" offset="0%"></stop>
            <stop stop-color="#7F1810" offset="100%"></stop>
        </linearGradient>
        <linearGradient x1="50.4843351%" y1="-0.404930453%" x2="50.4887955%" y2="99.6481315%" id="linearGradient-4">
            <stop stop-color="#183E75" offset="0%"></stop>
            <stop stop-color="#008ECF" offset="100%"></stop>
        </linearGradient>
        <linearGradient x1="48.9506436%" y1="21.2162621%" x2="48.9349277%" y2="78.7177329%" id="linearGradient-5">
            <stop stop-color="#183E75" offset="0%"></stop>
            <stop stop-color="#008ECF" offset="100%"></stop>
        </linearGradient>
        <linearGradient x1="-0.014701844%" y1="60.3041405%" x2="100.34141%" y2="60.2542365%" id="linearGradient-6">
            <stop stop-color="#3AAA35" offset="0%"></stop>
            <stop stop-color="#133A22" offset="100%"></stop>
        </linearGradient>
        <linearGradient x1="20.2778719%" y1="49.8311799%" x2="79.3730223%" y2="49.8468952%" id="linearGradient-7">
            <stop stop-color="#3AAA35" offset="0%"></stop>
            <stop stop-color="#133A22" offset="100%"></stop>
        </linearGradient>
        <linearGradient x1="50.0132144%" y1="100.017309%" x2="50.0132144%" y2="-0.0271989342%" id="linearGradient-8">
            <stop stop-color="#E30613" offset="0%"></stop>
            <stop stop-color="#FBBB21" offset="100%"></stop>
        </linearGradient>
    </defs>
    <g id="Symbols" stroke="none" stroke-width="1" fill="none" fill-rule="evenodd">
        <g id="navbar/NEW/breadcrumbs" transform="translate(-1268.000000, -14.000000)" fill-rule="nonzero">
            <g id="Group-8">
                <g id="Logo-Copy" transform="translate(1171.000000, 14.000000)">
                    <g id="logo-jazeera-2018">
                        <g id="Group-3" transform="translate(97.635788, 0.001111)">
                            <path d="M35.5114844,18.1139714 C35.8965578,17.8434279 36.134802,17.411903 36.1574308,16.9439869 C36.1800597,16.4760709 35.9845539,16.0238558 35.6273602,15.7179058 C34.7124675,14.9172285 33.7281552,14.1983698 32.6858968,13.5697091 C31.5031187,12.8914869 29.9985332,13.1765298 29.1501984,14.2395452 C27.5635908,16.2165944 24.6399545,20.5247911 19.3780032,23.3192173 C18.1093114,23.9920042 19.7226596,25.4172501 20.6080698,26.0870862 C20.9113923,26.3157865 21.321062,26.348059 21.6568946,26.1697091 C23.8228813,25.010037 31.9579589,20.5867583 35.5114844,18.1139714 Z" id="Shape" fill="url(#linearGradient-1)"></path>
                            <path d="M30.2792449,30.3097091 C30.7437939,30.3883203 31.2189023,30.2499618 31.5671479,29.9346529 C31.9153935,29.6193441 32.0979264,29.1622605 32.06195,28.6956107 C31.9873908,27.4875447 31.8034252,26.288603 31.5122826,25.1133157 C31.1580895,23.8062405 29.8954605,22.9522809 28.5411075,23.1038075 C26.0126374,23.3988894 20.8784467,24.3815124 15.1708192,22.6611845 C13.7951651,22.2451189 13.9199545,24.3844632 14.0685132,25.4821681 C14.1218798,25.8570349 14.3898024,26.1668939 14.7548547,26.2759386 C17.1169389,26.9782337 26.0215509,29.5631517 30.2792449,30.3097091 Z" id="Shape" fill="url(#linearGradient-2)"></path>
                            <path d="M17.9191562,35.2670862 C18.1908504,35.6505359 18.6255569,35.8879581 19.0971224,35.910452 C19.5686878,35.9329459 20.0243044,35.7379926 20.3317505,35.3821681 C21.1389099,34.4746583 21.8637257,33.4980717 22.4977372,32.4638075 C23.177715,31.2870852 22.889814,29.7934845 21.8203092,28.9493812 C19.8296219,27.3736435 15.4917061,24.4729878 12.6809744,19.2470862 C12.0005753,17.9841353 10.5684689,19.5864304 9.89104094,20.4687255 C9.66025833,20.7700157 9.62885893,21.1777214 9.81081921,21.5103648 C10.9666063,23.6585616 15.4233691,31.7408566 17.9191562,35.2670862 Z" id="Shape" fill="url(#linearGradient-3)"></path>
                            <path d="M5.64226045,30.0854468 C5.56327279,30.5462666 5.70222134,31.0175491 6.01900398,31.363277 C6.33578663,31.7090049 6.79515201,31.8907057 7.26452209,31.8559386 C8.48158707,31.7789844 9.68952781,31.5963193 10.8744999,31.310037 C12.1905916,30.9582704 13.050442,29.7042916 12.8978702,28.3592173 C12.6007527,25.8451189 11.6113514,20.7461025 13.3435465,15.0805288 C13.759511,13.7113485 11.605409,13.8382337 10.5001318,13.9857747 C10.1229762,14.0358299 9.8108986,14.3018228 9.7038569,14.6644632 C8.99671721,17.0015124 6.39099659,25.8421681 5.64226045,30.0854468 Z" id="Shape" fill="url(#linearGradient-4)"></path>
                            <path d="M0.647714997,17.7982337 C0.26264158,18.0687772 0.0243973895,18.5003021 0.00176855853,18.9682182 C-0.0208602724,19.4361342 0.174645477,19.8883493 0.531839165,20.1942993 C1.44673187,20.9949766 2.43104422,21.7138353 3.47330258,22.342496 C4.65608074,23.0207182 6.16066618,22.7356753 7.00900103,21.6726599 C8.59560857,19.6956107 11.5192449,15.387414 16.7811961,12.5929878 C18.0498879,11.9202009 16.4365398,10.494955 15.5511296,9.82511894 C15.2478071,9.59641856 14.8381374,9.56414614 14.5023048,9.74249599 C12.3363181,10.8903648 4.2012405,15.3165944 0.647714997,17.7982337 Z" id="Shape" fill="url(#linearGradient-5)"></path>
                            <path d="M5.86509859,5.60249599 C5.4005496,5.52388483 4.92544125,5.66224333 4.57719564,5.97755216 C4.22895004,6.29286099 4.04641716,6.74994457 4.08239349,7.21659435 C4.15738536,8.42442206 4.34033745,9.62323837 4.62908972,10.7988894 C4.98437825,12.105191 6.24623539,12.9586285 7.60026489,12.8083976 C10.128735,12.5133157 15.2629256,11.5306927 20.9705531,13.2510206 C22.3462072,13.6670862 22.2214179,11.5277419 22.0728591,10.430037 C22.0194925,10.0551702 21.75157,9.74531122 21.3865177,9.63626648 C19.0422605,8.9339714 10.1376485,6.34905337 5.86509859,5.60249599 Z" id="Shape" fill="url(#linearGradient-6)"></path>
                            <path d="M18.2400432,0.645118943 C17.968349,0.261669207 17.5336425,0.0242469876 17.062077,0.0017530766 C16.5905116,-0.0207408344 16.134895,0.174212523 15.8274489,0.530036975 C15.0202895,1.43754679 14.2954737,2.41413343 13.6614622,3.44839763 C12.9814844,4.62511989 13.2693854,6.11872064 14.3388902,6.96282386 C16.3295775,8.53561075 20.6674933,11.4392173 23.478225,16.6651189 C24.1586241,17.9280698 25.5907305,16.3257747 26.2681585,15.4434796 C26.497479,15.1416389 26.5288111,14.734807 26.3483802,14.4018403 C25.1836795,12.2536435 20.7298879,4.17134845 18.2400432,0.645118943 Z" id="Shape" fill="url(#linearGradient-7)"></path>
                            <path d="M28.1013735,15.5851189 C29.0432361,12.2152829 30.0861185,8.26413534 30.5169389,5.82675829 C30.5959266,5.36593852 30.4569781,4.89465598 30.1401954,4.5489281 C29.8234128,4.20320022 29.3640474,4.02149938 28.8946773,4.05626648 C27.6776123,4.13322072 26.4696716,4.31588579 25.2846995,4.60216812 C23.9686078,4.9539347 23.1087574,6.20791346 23.2613292,7.55298779 C23.5584467,10.0670862 24.547848,15.1661025 22.8156529,20.8316763 C22.7895696,20.9190963 22.7736201,21.0091877 22.7681141,21.1002009 C24.7667574,19.4858898 26.5579503,17.6336312 28.1013735,15.5851189 L28.1013735,15.5851189 Z" id="Shape" fill="url(#linearGradient-8)"></path>
                        </g>
                    </g>
                </g>
            </g>
        </g>
    </g>
</svg>