<?xml version="1.0" encoding="UTF-8"?>
<svg width="39px" height="24px" viewBox="0 0 39 24" version="1.1" xmlns="http://www.w3.org/2000/svg" xmlns:xlink="http://www.w3.org/1999/xlink">
    <!-- Generator: Sketch 55.2 (78181) - https://sketchapp.com -->
    <title>mada</title>
    <desc>Created with Sketch.</desc>
    <g id="05-cart-&amp;-payment" stroke="none" stroke-width="1" fill="none" fill-rule="evenodd">
        <g id="05-11-00-checkout-pickup" transform="translate(-810.000000, -2357.000000)">
            <g id="payment" transform="translate(135.000000, 2125.000000)">
                <g id="active-contetn" transform="translate(273.000000, 87.000000)">
                    <g id="cards" transform="translate(214.000000, 145.000000)">
                        <g id="mada" transform="translate(188.000000, 0.000000)">
                            <rect id="Rectangle-Copy-4" stroke="#D5D7DC" stroke-width="0.75" fill-rule="nonzero" x="0.375" y="0.375" width="38.25" height="23.25" rx="1.5"></rect>
                            <g id="Mada_Logo" transform="translate(3.000000, 6.500000)">
                                <rect id="Rectangle" fill="#82AB38" x="0" y="6.33120301" width="13.5227102" height="4.63984962"></rect>
                                <rect id="Rectangle" fill="#0286D3" x="0" y="0" width="13.5227102" height="4.64398496"></rect>
                                <path d="M27.0454203,10.0281955 L27.0454203,8.09699248 L26.9932246,8.08045113 C26.7523212,8.00601504 26.6238394,7.99360902 26.5114178,7.98533835 L26.5074028,7.98533835 C25.8489335,7.98533835 25.7766625,8.58496241 25.7766625,9.03571429 C25.7766625,9.91240602 26.1942284,10.0984962 26.5475533,10.0984962 C26.7001255,10.0984962 26.7764115,10.0819549 26.9851945,10.0406015 L27.0454203,10.0281955 Z M27.1538269,5.65714286 C27.4710163,5.60338346 27.7962359,5.54548872 28.1094103,5.48759398 L28.1094103,10.1398496 C28.1094103,10.4665414 27.9929737,10.6195489 27.6677541,10.7270677 C27.3144291,10.8469925 26.9651192,10.8966165 26.4913425,10.8966165 C25.3711418,10.8966165 24.7287327,10.2184211 24.7287327,9.03984962 C24.7287327,8.17969925 25.0057716,7.15413534 26.3227102,7.15413534 C26.5636136,7.15413534 26.8125471,7.22857143 26.9209536,7.26165414 L26.949059,7.26992481 L27.0454203,7.29887218 L27.0454203,5.67781955 L27.1538269,5.65714286 Z M30.9601004,10.0571429 L30.9601004,9.31278195 L30.3056462,9.31278195 C29.7997491,9.31278195 29.723463,9.60639098 29.723463,9.78007519 C29.723463,10.0488722 29.9081556,10.206015 30.2173149,10.206015 C30.3457967,10.206015 30.5144291,10.1770677 30.7031368,10.1274436 L30.9038896,10.0736842 L30.9601004,10.0571429 Z M30.4983689,7.13345865 C31.4619824,7.13345865 31.9518193,7.5593985 31.9518193,8.39473684 L31.9518193,10.975188 C31.6346299,10.9131579 31.3094103,10.8552632 30.9962359,10.7973684 L30.8958595,10.7808271 L30.8797992,10.7766917 L30.863739,10.7808271 C30.5666248,10.8552632 30.22133,10.9048872 29.9723965,10.9048872 C29.1693852,10.9048872 28.6915935,10.4996241 28.6915935,9.82556391 C28.6915935,9.03571429 29.2095358,8.66766917 30.3297365,8.66766917 L30.9440402,8.66766917 L30.9440402,8.45263158 C30.9440402,7.96052632 30.5023839,7.96052632 30.3578419,7.96052632 C30.0366374,7.96052632 29.6070263,8.03496241 29.2617315,8.15075188 L28.9324969,8.26240602 L28.8200753,7.47669173 L29.15734,7.37330827 C29.6752823,7.20789474 30.0928482,7.13345865 30.4983689,7.13345865 Z M23.1588457,10.0571429 L23.1548306,9.31278195 L22.5003764,9.31278195 C21.9984944,9.31278195 21.9222083,9.60639098 21.9222083,9.78007519 C21.9222083,10.0488722 22.1069009,10.206015 22.4160602,10.206015 C22.5485571,10.206015 22.7131744,10.1770677 22.9018821,10.1274436 L23.1026349,10.0736842 L23.1588457,10.0571429 Z M22.7011292,7.13345865 C23.6647428,7.13345865 24.1545797,7.55526316 24.1505891,8.39887218 L24.1505891,10.9793233 C23.8333752,10.9131579 23.5121706,10.8552632 23.1949812,10.7973684 L23.0986198,10.7808271 L23.0825596,10.7766917 L23.0664994,10.7808271 C22.7693852,10.8552632 22.4240903,10.9048872 22.1751568,10.9048872 C21.3681305,10.9048872 20.8903388,10.4996241 20.8903388,9.82556391 C20.8903388,9.03571429 21.4122961,8.66766917 22.5324969,8.66766917 L23.1468005,8.66766917 L23.1468005,8.45263158 C23.1468005,7.96052632 22.7051443,7.96052632 22.5606023,7.96052632 C22.2393977,7.96052632 21.8097867,8.03496241 21.4644918,8.15075188 L21.1352572,8.26240602 L21.0228356,7.47669173 L21.3601004,7.37330827 C21.8780427,7.20789474 22.2915935,7.13345865 22.7011292,7.13345865 Z M18.9309912,7.14172932 C19.8624843,7.14172932 20.3121706,7.5593985 20.3121706,8.42368421 L20.3121706,10.8635338 L19.2642409,10.8635338 L19.2642409,8.53120301 C19.2642409,8.11766917 19.0112923,8.03082707 18.7984944,8.03082707 C18.6138018,8.03082707 18.4371393,8.06804511 18.276537,8.1424812 L18.204266,8.17556391 L18.2404015,8.24586466 C18.2444166,8.26240602 18.272522,8.34511278 18.272522,8.48571429 L18.272522,10.8635338 L17.2205772,10.8635338 L17.2205772,8.53120301 C17.2205772,8.20037594 17.06399,8.03082707 16.7548306,8.03082707 C16.6303639,8.03082707 16.5018821,8.04323308 16.285069,8.11766917 L16.2328733,8.13421053 L16.2328733,10.8593985 L15.1648683,10.8593985 L15.1648683,7.91090226 C15.1648683,7.5924812 15.2973651,7.42293233 15.6386449,7.31541353 C16.0361355,7.19548872 16.4015056,7.13759398 16.7909661,7.13759398 C17.2326223,7.13759398 17.5498118,7.22030075 17.7666248,7.38157895 L17.8027604,7.41052632 L17.8429109,7.38984962 C17.9994981,7.31541353 18.421079,7.14172932 18.9309912,7.14172932 Z M30.1731493,3.02706767 C30.5224592,3.02706767 30.9440402,2.84097744 30.9480552,1.96428571 C30.9480552,1.51353383 30.8717691,0.913909774 30.2173149,0.913909774 L30.2132999,0.913909774 C30.1169385,0.922180451 29.9001255,0.913909774 29.6632371,0.980075188 C29.655207,0.980075188 29.6471769,0.984210526 29.6351317,0.988345865 C29.6110414,0.996616541 29.5869511,1.00488722 29.5628607,1.01315789 L29.5508156,1.02142857 C29.5307403,1.02969925 29.5146801,1.03383459 29.4986198,1.04210526 L29.4303639,1.07105263 L29.4624843,1.13721805 C29.4664994,1.14962406 29.4905897,1.23233083 29.4905897,1.36466165 L29.4905897,2.95676692 L29.5508156,2.96917293 C29.7555834,3.01052632 30.0165621,3.02706767 30.1731493,3.02706767 Z M30.1691343,2.30926389e-14 C31.2612296,0.0248120301 31.9638645,0.798120301 31.9678795,1.97669173 C31.9678795,3.16766917 31.2411543,3.94097744 30.1209536,3.94097744 C29.7877039,3.94097744 29.3018821,3.87067669 29.0409034,3.73834586 C28.8642409,3.76729323 28.659473,3.80037594 28.4828105,3.83759398 L23.323463,3.83759398 C23.3676286,3.55225564 23.4077792,3.26691729 23.4398996,3.04774436 L25.1181932,3.04774436 C25.2506901,3.04774436 25.3350063,3.07669173 25.3470514,3.08082707 L25.4153074,3.11804511 L25.4153074,1.96842105 C25.4153074,1.28195489 25.1462986,0.835338346 24.6363864,0.835338346 L23.6647428,0.835338346 C23.7048934,0.541729323 23.7370138,0.334962406 23.7771644,0.0413533835 L24.6363864,0.0413533835 L24.7528231,0.0413533835 C25.7525721,0.0413533835 26.4431619,0.703007519 26.4672522,1.90639098 L26.4712673,1.90639098 L26.4712673,3.04774436 L28.4105395,3.04774436 L28.446675,2.97744361 C28.4506901,2.96503759 28.4787955,2.9112782 28.4787955,2.77067669 L28.4787955,1.12894737 C28.4828105,0.884962406 28.5510665,0.678195489 28.6715182,0.512781955 C28.8963614,0.173684211 29.5267252,2.30926389e-14 30.1410289,2.30926389e-14 C30.149059,2.30926389e-14 30.1611041,2.30926389e-14 30.1691343,2.30926389e-14 Z M21.123212,4.32142857 L20.7136763,4.32142857 L19.6456713,4.32142857 L17.8549561,4.31729323 L16.995734,4.31729323 L16.8792974,4.31729323 C15.8795483,4.31729323 15.1889586,3.7424812 15.1648683,2.53909774 L15.1648683,2.04699248 L15.1648683,2.00150376 C15.1889586,0.798120301 15.8795483,0.107518797 16.8792974,0.107518797 L16.995734,0.107518797 L18.2163112,0.107518797 C18.1761606,0.396992481 18.1480552,0.591353383 18.1038896,0.897368421 L17.1242158,0.897368421 C16.5340025,0.897368421 16.2569636,1.34398496 16.2569636,2.06353383 L16.2569636,2.53909774 C16.2569636,3.22969925 16.6143036,3.52744361 17.1242158,3.52744361 L17.7264743,3.52744361 L21.0308657,3.53571429 L21.2035132,3.53571429 C21.7053952,3.53571429 21.7816813,3.17593985 21.7816813,3.00225564 C21.7816813,2.73759398 21.5969887,2.48533835 21.2878294,2.48533835 L20.2559598,2.48533835 C19.4529486,2.48533835 18.9751568,2.08007519 18.9751568,1.30263158 C18.9751568,0.516917293 19.5252196,0.0454887218 20.6173149,0.0454887218 L22.9621079,0.0454887218 C22.9179423,0.347368421 22.8938519,0.537593985 22.8456713,0.839473684 L20.5892095,0.839473684 C20.0833124,0.839473684 20.0070263,1.09586466 20.0070263,1.30263158 C20.0070263,1.60864662 20.1917189,1.7906015 20.5008783,1.7906015 L21.5327478,1.7906015 C22.3357591,1.7906015 22.8135508,2.32819549 22.8135508,3.00225564 C22.8135508,3.94097744 22.2915935,4.32142857 21.1713927,4.32142857 L21.123212,4.32142857 Z" id="Combined-Shape" fill="#26282C" fill-rule="nonzero"></path>
                            </g>
                        </g>
                    </g>
                </g>
            </g>
        </g>
    </g>
</svg>