<?xml version="1.0" encoding="UTF-8"?>
<svg width="39px" height="24px" viewBox="0 0 39 24" version="1.1" xmlns="http://www.w3.org/2000/svg" xmlns:xlink="http://www.w3.org/1999/xlink">
    <!-- Generator: Sketch 55.2 (78181) - https://sketchapp.com -->
    <title>mastercard</title>
    <desc>Created with Sketch.</desc>
    <g id="05-cart-&amp;-payment" stroke="none" stroke-width="1" fill="none" fill-rule="evenodd">
        <g id="05-11-00-checkout-pickup" transform="translate(-622.000000, -2357.000000)" fill-rule="nonzero">
            <g id="payment" transform="translate(135.000000, 2125.000000)">
                <g id="active-contetn" transform="translate(273.000000, 87.000000)">
                    <g id="cards" transform="translate(214.000000, 145.000000)">
                        <g id="mastercard">
                            <rect id="Rectangle" stroke="#D5D7DC" stroke-width="0.75" x="0.375" y="0.375" width="38.25" height="23.25" rx="1.5"></rect>
                            <g id="Mastercard-logo" transform="translate(7.500000, 3.000000)">
                                <path d="M23.409233,0.669039018 L23.4527259,0.669039018 C23.4623402,0.669039018 23.4705809,0.667303233 23.4765326,0.663397716 C23.4820265,0.659926146 23.4852312,0.654284844 23.4852312,0.646907756 C23.4852312,0.639530669 23.4820265,0.63345542 23.4765326,0.62998385 C23.4705809,0.626512279 23.4623402,0.624342548 23.4527259,0.624342548 L23.409233,0.624342548 L23.409233,0.669039018 Z M23.4531838,0.700283153 L23.3716917,0.700283153 L23.3716917,0.533213821 L23.409233,0.533213821 L23.409233,0.59570209 L23.4266302,0.59570209 L23.4801952,0.533213821 L23.5250616,0.533213821 L23.4673762,0.596136037 C23.485689,0.598305768 23.4994236,0.603947071 23.5090379,0.612625997 C23.5191099,0.62173887 23.5236881,0.633021474 23.5236881,0.646907756 C23.5236881,0.663397716 23.5177364,0.676416106 23.5053753,0.685962925 C23.4930141,0.695509744 23.475617,0.700283153 23.4531838,0.700283153 Z M23.4417383,0.47549896 C23.4211363,0.47549896 23.4014501,0.479404477 23.3835951,0.486781564 C23.3652823,0.494158652 23.3492585,0.504139417 23.3359817,0.51672386 C23.322705,0.529308304 23.3121751,0.544062479 23.30485,0.561420331 C23.297067,0.578344238 23.2934045,0.596569983 23.2934045,0.616097567 C23.2934045,0.635625152 23.297067,0.653850897 23.30485,0.670774804 C23.3121751,0.68769871 23.322705,0.702886831 23.3359817,0.715471275 C23.3492585,0.728055718 23.3652823,0.738036483 23.3835951,0.745413571 C23.4014501,0.752356712 23.4211363,0.755828282 23.4417383,0.755828282 C23.4623402,0.755828282 23.4815686,0.752356712 23.4989658,0.745413571 C23.5168208,0.738036483 23.5323867,0.728055718 23.5456635,0.715471275 C23.5589403,0.702886831 23.5694701,0.68769871 23.5772531,0.670774804 C23.5845782,0.653850897 23.5886986,0.635625152 23.5886986,0.616097567 C23.5886986,0.596569983 23.5845782,0.578344238 23.5772531,0.561420331 C23.5694701,0.544062479 23.5589403,0.529308304 23.5456635,0.51672386 C23.5323867,0.504139417 23.5168208,0.494158652 23.4989658,0.486781564 C23.4815686,0.479404477 23.4623402,0.47549896 23.4417383,0.47549896 Z M23.4417383,0.79618529 C23.414269,0.79618529 23.3890889,0.79141188 23.3652823,0.781865061 C23.3414756,0.772752189 23.3208737,0.759733799 23.3034765,0.743243839 C23.2860793,0.727187825 23.2723447,0.708094187 23.2622727,0.685962925 C23.2522006,0.664265609 23.2471646,0.640832508 23.2471646,0.616097567 C23.2471646,0.591362627 23.2522006,0.567929526 23.2622727,0.54623221 C23.2723447,0.524534894 23.2860793,0.505441256 23.3034765,0.488951296 C23.3208737,0.472895282 23.3414756,0.459876893 23.3652823,0.450330074 C23.3890889,0.440783255 23.414269,0.436009845 23.4417383,0.436009845 C23.4687497,0.436009845 23.493472,0.440783255 23.5172786,0.450330074 C23.5406275,0.459876893 23.5607716,0.472895282 23.5786266,0.488951296 C23.5960237,0.505441256 23.6097583,0.524534894 23.6198304,0.54623221 C23.6299024,0.567929526 23.6349385,0.591362627 23.6349385,0.616097567 C23.6349385,0.640832508 23.6299024,0.664265609 23.6198304,0.685962925 C23.6097583,0.708094187 23.5960237,0.727187825 23.5786266,0.743243839 C23.5607716,0.759733799 23.5406275,0.772752189 23.5172786,0.781865061 C23.493472,0.79141188 23.4687497,0.79618529 23.4417383,0.79618529 Z M5.60459811,1.43972768 C5.60459811,1.75824428 5.82480971,2.01991391 6.18465654,2.01991391 C6.52847965,2.01991391 6.76059459,1.76952688 6.76059459,1.43972768 C6.76059459,1.10992848 6.52847965,0.859541452 6.18465654,0.859541452 C5.82480971,0.859541452 5.60459811,1.12121108 5.60459811,1.43972768 Z M7.15248884,1.43972768 L7.15248884,2.3458076 L6.73678793,2.3458076 L6.73678793,2.12579681 C6.60493566,2.28896063 6.40486815,2.39137196 6.13292283,2.39137196 C5.59681516,2.39137196 5.17653604,1.99300924 5.17653604,1.43972768 C5.17653604,0.886012178 5.59681516,0.488083403 6.13292283,0.488083403 C6.40486815,0.488083403 6.60493566,0.590494735 6.73678793,0.753658551 L6.73678793,0.533647767 L7.15248884,0.533647767 L7.15248884,1.43972768 Z M21.2002496,1.43972768 C21.2002496,1.75824428 21.4204612,2.01991391 21.7803081,2.01991391 C22.124589,2.01991391 22.3562461,1.76952688 22.3562461,1.43972768 C22.3562461,1.10992848 22.124589,0.859541452 21.7803081,0.859541452 C21.4204612,0.859541452 21.2002496,1.12121108 21.2002496,1.43972768 Z M22.7485982,1.43972768 L22.7485982,3.07353557 L22.3324395,3.07353557 L22.3324395,2.12579681 C22.2005872,2.28896063 22.0005197,2.39137196 21.7285744,2.39137196 C21.1924667,2.39137196 20.7721876,1.99300924 20.7721876,1.43972768 C20.7721876,0.886012178 21.1924667,0.488083403 21.7285744,0.488083403 C22.0005197,0.488083403 22.2005872,0.590494735 22.3324395,0.753658551 L22.3324395,0.533647767 L22.7485982,0.533647767 L22.7485982,1.43972768 Z M12.3125824,2.0385736 C12.5804074,2.0385736 12.7525478,1.8793153 12.7964986,1.59898598 L11.8044018,1.59898598 C11.8488104,1.86065561 12.0163726,2.0385736 12.3125824,2.0385736 Z M12.3208232,2.39137196 C11.760451,2.39137196 11.3685568,2.00472579 11.3685568,1.43972768 C11.3685568,0.863446969 11.7764748,0.488083403 12.3487502,0.488083403 C12.6367193,0.488083403 12.9004238,0.556212975 13.1325388,0.741942 L12.9288087,1.03398787 C12.7685715,0.91291685 12.5643837,0.844353331 12.3725569,0.844353331 C12.104732,0.844353331 11.8607137,0.961952784 11.8007392,1.28828042 L13.2204403,1.28828042 C13.2245607,1.33731635 13.228681,1.38678623 13.228681,1.43972768 C13.2245607,2.00472579 12.8564731,2.39137196 12.3208232,2.39137196 Z M17.3403659,1.43972768 C17.3403659,1.75824428 17.5605775,2.01991391 17.9204244,2.01991391 C18.2642475,2.01991391 18.4963624,1.76952688 18.4963624,1.43972768 C18.4963624,1.10992848 18.2642475,0.859541452 17.9204244,0.859541452 C17.5605775,0.859541452 17.3403659,1.12121108 17.3403659,1.43972768 Z M18.8882567,1.43972768 L18.8882567,2.3458076 L18.4725558,2.3458076 L18.4725558,2.12579681 C18.3402457,2.28896063 18.140636,2.39137196 17.8686907,2.39137196 C17.332583,2.39137196 16.9123039,1.99300924 16.9123039,1.43972768 C16.9123039,0.886012178 17.332583,0.488083403 17.8686907,0.488083403 C18.140636,0.488083403 18.3402457,0.590494735 18.4725558,0.753658551 L18.4725558,0.533647767 L18.8882567,0.533647767 L18.8882567,1.43972768 Z M14.992663,1.43972768 C14.992663,0.889917695 15.3964606,0.488083403 16.0126868,0.488083403 C16.3006558,0.488083403 16.4924826,0.548835888 16.700333,0.70418867 L16.5007233,1.02270527 C16.3446066,0.91638842 16.1807069,0.859541452 16.0003257,0.859541452 C15.6684059,0.863446969 15.4243876,1.09083484 15.4243876,1.43972768 C15.4243876,1.78862052 15.6684059,2.01600839 16.0003257,2.01991391 C16.1807069,2.01991391 16.3446066,1.96306694 16.5007233,1.85675009 L16.700333,2.17526669 C16.4924826,2.33061947 16.3006558,2.39137196 16.0126868,2.39137196 C15.3964606,2.39137196 14.992663,1.98953767 14.992663,1.43972768 Z M20.3523663,2.39137196 C20.1124684,2.39137196 19.9563516,2.28505511 19.848306,2.12579681 L19.848306,2.3458076 L19.4362677,2.3458076 L19.4362677,0.533647767 L19.8524264,0.533647767 L19.8524264,1.5495161 C19.8524264,1.84937301 19.9883991,2.01600839 20.2603444,2.01600839 C20.3445833,2.01600839 20.4324848,2.00472579 20.5203864,1.97044403 L20.6485761,2.34190208 C20.5565542,2.37618384 20.4366052,2.39137196 20.3523663,2.39137196 Z M9.2085602,2.20173742 C9.00849269,2.32671396 8.73288482,2.39137196 8.42889208,2.39137196 C7.94451811,2.39137196 7.63274243,2.17136117 7.63274243,1.81118573 C7.63274243,1.51566829 7.86485736,1.33341083 8.29246161,1.27656387 L8.48886655,1.25009314 C8.71686111,1.2197169 8.8244489,1.16286993 8.8244489,1.0604586 C8.8244489,0.920293937 8.67245253,0.840447814 8.38860389,0.840447814 C8.10063486,0.840447814 7.89278441,0.927671025 7.75269137,1.03008236 L7.55674424,0.723282308 C7.7847388,0.564024009 8.07270782,0.488083403 8.3844835,0.488083403 C8.93661489,0.488083403 9.25663134,0.734564913 9.25663134,1.07955224 C9.25663134,1.39806883 9.00483013,1.56470422 8.5886714,1.62155119 L8.39272427,1.64845586 C8.21280086,1.67102107 8.06858744,1.70486888 8.06858744,1.82637385 C8.06858744,1.95916142 8.20456009,2.0385736 8.43255465,2.0385736 C8.67657291,2.0385736 8.91280823,1.95135039 9.02863679,1.88322082 L9.2085602,2.20173742 Z M14.5723839,2.39137196 C14.332486,2.39137196 14.1763692,2.28505511 14.0687814,2.12579681 L14.0687814,2.3458076 L13.6567431,2.3458076 L13.6567431,0.533647767 L14.072444,0.533647767 L14.072444,1.5495161 C14.072444,1.84937301 14.2084167,2.01600839 14.480362,2.01600839 C14.5646009,2.01600839 14.6525024,2.00472579 14.740404,1.97044403 L14.8685937,2.34190208 C14.7765718,2.37618384 14.6566228,2.39137196 14.5723839,2.39137196 Z M11.0247337,2.3458076 L10.3448704,2.3458076 L10.3448704,2.89561758 L9.92459129,2.89561758 L9.92459129,2.3458076 L9.53681742,2.3458076 L9.53681742,1.98563215 L9.92459129,1.98563215 L9.92459129,1.15896441 C9.92459129,0.738470429 10.0967318,0.488083403 10.5884309,0.488083403 C10.7688121,0.488083403 10.9766625,0.541024854 11.1085148,0.628248064 L10.9885659,0.965858301 C10.8644965,0.897728729 10.7285239,0.863446969 10.6204783,0.863446969 C10.4126278,0.863446969 10.3448704,0.984951939 10.3448704,1.16677545 L10.3448704,1.98563215 L11.0247337,1.98563215 L11.0247337,2.3458076 Z M4.80890627,0.533647767 L4.80890627,1.67102107 C4.80890627,2.09932609 4.52093725,2.38746644 4.05670737,2.39137196 C3.81268911,2.39527748 3.56088789,2.32324239 3.38462704,2.06894984 C3.25277477,2.26986699 3.04492432,2.39137196 2.75283491,2.39137196 C2.54864701,2.39137196 2.34903733,2.33452499 2.19292057,2.12232524 L2.19292057,2.3458076 L1.77676184,2.3458076 L1.77676184,0.533647767 L2.19658314,0.533647767 L2.19658314,1.5382335 C2.19658314,1.85284458 2.38062693,2.01991391 2.66493339,2.01991391 C2.94099909,2.01991391 3.08063431,1.84937301 3.08063431,1.54213901 L3.08063431,0.533647767 L3.50091342,0.533647767 L3.50091342,1.5382335 C3.50091342,1.85284458 3.69274017,2.01991391 3.96880586,2.01991391 C4.2526545,2.01991391 4.38862716,1.84937301 4.38862716,1.54213901 L4.38862716,0.533647767 L4.80890627,0.533647767 Z M24.0339717,6.04687214 L24.0339717,6.60415057 L23.9187717,6.60415057 L23.7854584,6.22136424 L23.6528698,6.60415057 L23.5369452,6.60415057 L23.5369452,6.04687214 L23.6188169,6.04687214 L23.6188169,6.46711489 L23.7434358,6.10442713 L23.8282056,6.10442713 L23.9528245,6.46802847 L23.9528245,6.04687214 L24.0339717,6.04687214 Z M23.3029226,6.04687214 L23.3029226,6.50913917 L23.4507264,6.50913917 L23.4507264,6.603237 L23.0739717,6.603237 L23.0739717,6.50913917 L23.2217754,6.50913917 L23.2217754,6.04687214 L23.3029226,6.04687214 Z" id="Combined-Shape" fill="#221E1F" transform="translate(12.905367, 9.025109) scale(-1, 1) rotate(-180.000000) translate(-12.905367, -9.025109) "></path>
                                <polygon id="Path" fill="#F75D04" points="15.3882198 12.6285996 9.08787875 12.6285996 9.08787875 1.89623921 15.3882198 1.89623921"></polygon>
                                <path d="M9.4914932,7.2615515 C9.4914932,9.43866018 10.5669133,11.3779663 12.2416203,12.6277317 C11.0169507,13.5416226 9.47134911,14.0870931 7.7916061,14.0870931 C3.81497821,14.0870931 0.591464854,11.0312432 0.591464854,7.2615515 C0.591464854,3.49185982 3.81497821,0.436009845 7.7916061,0.436009845 C9.47134911,0.436009845 11.0169507,0.981480368 12.2416203,1.89537132 C10.5669133,3.14513671 9.4914932,5.08444281 9.4914932,7.2615515" id="Path" fill="#E3011A" transform="translate(6.416543, 7.261551) scale(-1, 1) rotate(-180.000000) translate(-6.416543, -7.261551) "></path>
                                <path d="M23.8853662,7.2615515 C23.8853662,3.49185982 20.6618529,0.436009845 16.685225,0.436009845 C15.005482,0.436009845 13.4598803,0.981480368 12.234753,1.89537132 C13.9099178,3.14513671 14.9853379,5.08444281 14.9853379,7.2615515 C14.9853379,9.43866018 13.9099178,11.3779663 12.234753,12.6277317 C13.4598803,13.5416226 15.005482,14.0870931 16.685225,14.0870931 C20.6618529,14.0870931 23.8853662,11.0312432 23.8853662,7.2615515" id="Path" fill="#EF9A18" transform="translate(18.060060, 7.261551) scale(-1, 1) rotate(-180.000000) translate(-18.060060, -7.261551) "></path>
                            </g>
                        </g>
                    </g>
                </g>
            </g>
        </g>
    </g>
</svg>