<svg xmlns="http://www.w3.org/2000/svg" width="48" height="42" viewBox="0 0 48 42">
    <g fill="#00A657" fill-rule="nonzero">
        <path d="M34.06 22.84h-6.514a3.239 3.239 0 0 0-3.233 3.238v5.005a3.239 3.239 0 0 0 3.233 3.238h6.514a3.239 3.239 0 0 0 3.233-3.238v-5.005a3.239 3.239 0 0 0-3.233-3.238zm.882 8.243c0 .49-.402.883-.882.883h-6.514a.885.885 0 0 1-.882-.883v-5.005c0-.49.402-.883.882-.883h6.514c.49 0 .882.402.882.883v5.005z"/>
        <path d="M47.941 13.743c0-.206-.049-.402-.157-.579L40.654.604a1.181 1.181 0 0 0-1.02-.6H8.297c-.421 0-.813.227-1.019.6L.157 13.164a1.192 1.192 0 0 0-.157.58 6.889 6.889 0 0 0 4.114 6.3v20.715a1.18 1.18 0 0 0 1.176 1.177h37.352a1.18 1.18 0 0 0 1.175-1.177V20.19c0-.049 0-.088-.01-.127 2.43-1.07 4.134-3.494 4.134-6.32zM8.983 2.37h29.966l5.573 9.823H3.42L8.983 2.37zm25.136 12.168a4.518 4.518 0 0 1-8.895 0h8.895zm-11.392 0a4.518 4.518 0 0 1-4.448 3.73 4.536 4.536 0 0 1-4.457-3.73h8.905zm-20.298 0h8.905a4.528 4.528 0 0 1-4.457 3.73c-2.224.009-4.075-1.61-4.448-3.73zm17.32 25.043h-6.76V26.873c0-.922.745-1.678 1.675-1.678h3.42c.92 0 1.674.746 1.674 1.678v12.708h-.01zm21.717 0H22.1V26.873a4.036 4.036 0 0 0-4.027-4.033h-3.418a4.036 4.036 0 0 0-4.026 4.033v12.718H6.465V20.622c.137.01.275.01.412.01a6.865 6.865 0 0 0 5.701-3.042 6.865 6.865 0 0 0 5.701 3.042c2.37 0 4.457-1.207 5.701-3.042a6.86 6.86 0 0 0 5.692 3.042 6.847 6.847 0 0 0 5.691-3.042 6.865 6.865 0 0 0 5.701 3.042c.138 0 .265-.01.402-.01v18.96zm-.402-21.304a4.518 4.518 0 0 1-4.447-3.73h8.905c-.382 2.11-2.234 3.73-4.458 3.73z"/>
    </g>
</svg>
