<?xml version="1.0" encoding="utf-8"?>
<!-- Generator: Adobe Illustrator 20.1.0, SVG Export Plug-In . SVG Version: 6.00 Build 0)  -->
<svg version="1.1" id="Layer_1" xmlns="http://www.w3.org/2000/svg" xmlns:xlink="http://www.w3.org/1999/xlink" x="0px" y="0px"
	 viewBox="0 0 36 36" style="enable-background:new 0 0 36 36;" xml:space="preserve">
<style type="text/css">
	.st0{fill:#232322;}
</style>
<g>
	<path class="st0" d="M2,20.1c0.9-1.3,1.8-2.6,2.7-3.9c1-1.4,1.9-2.8,2.9-4.2c0.1-0.2,0.3-0.4,0.5-0.4c2,0,4,0,6,0
		c0,0.4,0,0.7,0,1.1c-0.6,0-1.3,0-2,0c-0.8,0-1.6,0.1-2.3,0c-1.1-0.1-1.7,0.3-2.2,1.2c-1.1,1.9-2.4,3.6-3.6,5.4
		c-0.1,0.1-0.2,0.3-0.3,0.6c1,0,1.9,0,2.8,0c1.8,0,3.6,0,5.4,0c0.5,0,0.6,0.1,0.6,0.6c0,1.1,0,2.1,0,3.2c3.7,0,7.3,0,11,0
		c0-1.2,0-2.5,0-3.8c3,0,5.9,0,8.9,0c-0.6-0.9-1.1-1.7-1.6-2.4c-1-1.4-1.9-2.9-2.9-4.3c-0.2-0.3-0.5-0.5-0.9-0.5c-1.7,0-3.4,0-5.2,0
		c0-0.4,0-0.7,0-1.1c0.4,0,0.8,0,1.2,0c1.5,0,2.9,0,4.4,0c0.5,0,0.7,0.1,1,0.5c1.7,2.5,3.3,5,5,7.6c0.1,0.2,0.3,0.3,0.4,0.5
		c0,3.8,0,7.7,0,11.5c-0.4,1.1-1.2,1.5-2.3,1.5c-9.1,0-18.2,0-27.4,0c-1.1,0-1.9-0.4-2.3-1.5C2,27.7,2,23.9,2,20.1z"/>
	<path class="st0" d="M18.7,18.9c1-1,1.9-2,2.9-2.9c0,0,0.1-0.1,0.1-0.1c0.3-0.3,0.6-0.8,1.1-0.3c0.5,0.5,0,0.8-0.3,1.1
		c-0.9,0.9-1.9,1.8-2.8,2.8c-0.5,0.6-1.1,1.1-1.6,1.8c-1.7-1.7-3.2-3.2-4.8-4.8c-0.2-0.2-0.1-0.5-0.1-0.8c0.3,0,0.7-0.1,0.9,0.1
		c0.9,0.8,1.7,1.6,2.5,2.5c0.3,0.3,0.4,0.6,0.7,0.9c0.1-0.1,0.2-0.1,0.3-0.2c0-0.3,0-0.5,0-0.8c0-4.6,0-9.2,0-13.9
		c0-0.1,0-0.2,0-0.3c0.2-0.2,0.4-0.4,0.5-0.6c0.2,0.2,0.5,0.4,0.5,0.6c0,1.6,0,3.2,0,4.8c0,3.2,0,6.4,0,9.6c0,0.2,0,0.4,0,0.5
		C18.6,18.9,18.7,18.9,18.7,18.9z"/>
</g>
</svg>
