<svg xmlns="http://www.w3.org/2000/svg" width="20" height="20" viewBox="0 0 20 20">
    <g fill="none" fill-rule="evenodd" stroke="#FFF">
        <rect width="18" height="18" x="1" y="1" fill="#D8D8D8" fill-opacity="0" stroke-width="2" rx="5"/>
        <path fill="#FFF" fill-rule="nonzero" d="M10.884 10l3.933-3.932a.625.625 0 1 0-.885-.885L10 9.116 6.068 5.183a.625.625 0 1 0-.885.885L9.116 10l-3.933 3.933a.625.625 0 1 0 .885.884L10 10.884l3.932 3.933a.623.623 0 0 0 .885 0 .625.625 0 0 0 0-.885L10.884 10z"/>
    </g>
</svg>
