<?xml version="1.0" encoding="utf-8"?>
<!-- Generator: Adobe Illustrator 20.1.0, SVG Export Plug-In . SVG Version: 6.00 Build 0)  -->
<svg version="1.1" id="Layer_1" xmlns="http://www.w3.org/2000/svg" xmlns:xlink="http://www.w3.org/1999/xlink" x="0px" y="0px"
	 viewBox="0 0 36 36" style="enable-background:new 0 0 36 36;" xml:space="preserve">
<style type="text/css">
	.st0{fill:#232322;}
</style>
<g>
	<path class="st0" d="M9.1,22.4c0,1.7-0.1,3.5,0,5.1c0.1,1.3,0.5,2.7,1,3.9c0.8,1.9,2.3,2.9,4.5,2.8c2.6-0.1,5.3,0,7.9,0
		c1.5,0,2.6-0.6,3.4-1.8c0.5-0.7,0.9-1.6,1.1-2.4c0.9-3.4,0.4-6.8,0.4-10.3c0-1-1.1-1.9-2.2-1.9c-1.8,0-3.6,0-5.4,0
		c-1,0-1.9,0.6-2.1,1.7c-0.1,0.6,0,1.4,0.2,1.9c0.3,0.5,0.9,0.9,1.4,1.3c0,0,0,0.1-0.1,0.1c-0.7-0.4-1.4-0.8-2.1-1.2
		c-1.6,1.5-3,1.5-4.5-0.2C11.8,22.8,10.6,23,9.1,22.4z M26.1,17.2c0-4.6,0-9.2,0-13.8c0-0.5-0.5-1.1-0.9-1.5c-0.6-0.5-1.3-0.5-2-0.1
		c-0.8,0.4-1.1,1.1-1.1,2c0,4.3,0,8.6,0,12.8c0,0.2,0,0.4,0.1,0.6C23.5,17.2,24.7,17.2,26.1,17.2z M17,17.4
		C16.9,17.4,16.9,17.4,17,17.4c0-0.9,0-1.7,0-2.6c0-1.1-0.8-1.8-1.8-1.9c-1.1-0.1-2,0.6-2.1,1.7c-0.1,1.8-0.1,3.7,0,5.5
		c0.1,1.1,0.9,1.8,2,1.7c1.1,0,1.8-0.8,1.9-1.9C17,19.1,17,18.2,17,17.4z M12.4,17.8C12.4,17.8,12.4,17.8,12.4,17.8
		c0-0.7,0-1.5,0-2.2c-0.1-1.1-0.9-1.8-2.1-1.8c-1.1,0-1.8,0.8-1.9,1.9c0,1.4,0,2.8,0,4.2c0,1.1,0.9,1.9,1.9,1.9c1.1,0,1.9-0.8,2-1.9
		C12.4,19.2,12.4,18.5,12.4,17.8z M17.6,18.1c1.1-1.2,2.5-0.9,3.9-1c0-1.1,0-2.1,0-3.2c0-1.1-0.8-1.8-1.8-1.9
		c-1.1-0.1-2,0.6-2.1,1.7C17.6,15.2,17.6,16.6,17.6,18.1z"/>
	<path class="st0" d="M9.1,22.4c1.5,0.6,2.7,0.4,3.7-1c1.5,1.7,2.9,1.7,4.5,0.2c0.7,0.4,1.4,0.8,2.1,1.2c0,0,0-0.1,0.1-0.1
		C19,22.3,18.3,22,18,21.5c-0.3-0.5-0.3-1.3-0.2-1.9c0.2-1,1-1.6,2.1-1.7c1.8,0,3.6,0,5.4,0c1.1,0,2.2,0.9,2.2,1.9
		c0,3.4,0.4,6.9-0.4,10.3c-0.2,0.9-0.6,1.7-1.1,2.4c-0.8,1.2-1.9,1.8-3.4,1.8c-2.6,0-5.3-0.1-7.9,0c-2.2,0-3.7-1-4.5-2.8
		c-0.5-1.2-0.9-2.6-1-3.9C9,25.9,9.1,24.1,9.1,22.4z"/>
	<path class="st0" d="M26.1,17.2c-1.4,0-2.7,0-4,0c0-0.2-0.1-0.4-0.1-0.6c0-4.3,0-8.6,0-12.8c0-0.9,0.3-1.6,1.1-2
		c0.7-0.4,1.4-0.4,2,0.1c0.4,0.4,0.9,1,0.9,1.5C26.2,7.9,26.1,12.5,26.1,17.2z"/>
	<path class="st0" d="M17,17.4c0,0.8,0,1.7,0,2.5c0,1.1-0.8,1.9-1.9,1.9c-1.1,0-2-0.6-2-1.7c-0.1-1.8-0.1-3.7,0-5.5
		c0.1-1.1,1-1.8,2.1-1.7c1,0.1,1.8,0.8,1.8,1.9C17,15.7,16.9,16.5,17,17.4C16.9,17.4,16.9,17.4,17,17.4z"/>
	<path class="st0" d="M12.4,17.8c0,0.7,0,1.4,0,2c-0.1,1.1-0.9,1.9-2,1.9c-1.1,0-1.9-0.8-1.9-1.9c0-1.4,0-2.8,0-4.2
		c0-1.1,0.8-1.9,1.9-1.9c1.1,0,2,0.7,2.1,1.8C12.4,16.3,12.4,17.1,12.4,17.8C12.4,17.8,12.4,17.8,12.4,17.8z"/>
	<path class="st0" d="M17.6,18.1c0-1.6-0.1-3,0-4.3c0.1-1.1,1-1.8,2.1-1.7c1,0,1.8,0.8,1.8,1.9c0,1,0,2.1,0,3.2
		C20.2,17.3,18.8,16.9,17.6,18.1z"/>
</g>
</svg>
