<svg xmlns="http://www.w3.org/2000/svg" width="20" height="20" viewBox="0 0 20 20">
    <path fill="#00A657" fill-rule="nonzero" d="M13.667 20H20V0h-5.333v13.667h-1v1H0V20h13.667zm1.666-7.667h1a.333.333 0 1 0 0-.666h-1v-1.334h2a.333.333 0 1 0 0-.666h-2V8.333h1a.333.333 0 1 0 0-.666h-1V6.333h2a.333.333 0 1 0 0-.666h-2V4.333h1a.333.333 0 1 0 0-.666h-1V2.333h2a.333.333 0 1 0 0-.666h-2v-1h4v13h-4v-1.334zm-1 2h5v5h-5v-5zm-13.666 1h1v2a.333.333 0 1 0 .666 0v-2h1.334v1a.333.333 0 1 0 .666 0v-1h1.334v2a.333.333 0 1 0 .666 0v-2h1.334v1a.333.333 0 1 0 .666 0v-1h1.334v2a.333.333 0 1 0 .666 0v-2h1.334v1a.333.333 0 1 0 .666 0v-1h1.334v4h-13v-4z"/>
</svg>
