<?xml version="1.0" encoding="utf-8"?>
<!-- Generator: Adobe Illustrator 20.1.0, SVG Export Plug-In . SVG Version: 6.00 Build 0)  -->
<svg version="1.1" id="Layer_1" xmlns="http://www.w3.org/2000/svg" xmlns:xlink="http://www.w3.org/1999/xlink" x="0px" y="0px"
	 viewBox="0 0 36 36" style="enable-background:new 0 0 36 36;" xml:space="preserve">
<style type="text/css">
	.st0{fill:#242424;}
</style>
<g>
	<path class="st0" d="M24.2,25.5c-3.1,0-6.1,0-9,0c-0.5,0-0.5-0.3-0.6-0.6c-0.9-2.7-3.9-3.8-6.3-2.2c-1,0.7-1.6,1.6-1.9,2.9
		c-0.8,0-1.6,0.1-2.3,0c-0.3,0-0.7-0.4-0.7-0.6c-0.1-1.4,0-2.8,0-4.3c0.6,0,1.1,0,1.5,0c0.6,0,1-0.2,1-0.8c0-0.6-0.5-0.8-1.1-0.8
		c-1,0-2,0-3.1,0c-0.6,0-1.1-0.2-1.1-0.9c0-0.6,0.3-1,1.1-1c0.7,0,1.5,0,2.2,0c0.5,0,0.9-0.2,0.9-0.7c0-0.5-0.4-0.8-0.8-0.8
		c-0.3,0-0.7,0-1,0c-0.6,0-1-0.3-1-0.9c0-0.6,0.4-0.9,1-1c0.6,0,1.1,0,1.7,0c0.5,0,0.9-0.2,0.9-0.7c0-0.6-0.4-0.8-0.9-0.8
		c-0.4,0-0.9,0-1.3,0c0-0.1-0.1-0.2-0.1-0.3C3.3,9.8,3.3,9.8,5.2,9.8c5.7,0,11.4,0,17.1,0c0.3,0,0.6,0,0.8,0c0,2.5,0,4.9,0,7.4
		c0,0.4,0.3,0.9,0.6,1.2c0.4,0.4,0.5,0.7,0.5,1.2C24.2,21.6,24.2,23.5,24.2,25.5z M12.7,16.7c-0.7-0.8-1.4-1.5-2.1-2.2
		c-0.5-0.5-1.2-0.4-1.6,0c-0.5,0.5-0.5,1.1,0,1.6c1,1,1.9,2,2.9,2.9c0.5,0.5,1.1,0.5,1.6,0c1.6-1.5,3.1-3.1,4.7-4.6
		c0.5-0.5,0.5-1.2-0.1-1.7c-0.5-0.5-1.1-0.4-1.7,0.2C15.2,14.2,14,15.4,12.7,16.7z"/>
	<path class="st0" d="M25.4,23c0-1.8,0-3.4,0-5c-1.2-0.3-1.2-0.4-1.2-1.6c0-1.8,0-3.5,0-5.3c0-1,0.3-1.2,1.2-1.2c1.5,0,3,0,4.5,0
		c1.4,0,2.2,0.6,2.5,2c0.4,1.8,0.8,3.5,1.3,5.3c0,0.2,0.2,0.3,0.4,0.5c0.5,0.5,0.9,1,0.9,1.8c-1,0-1.9,0-2.9,0
		c0,0.9-0.4,1.8,0.5,2.2c0.7,0.3,1.5,0.3,2.4,0.4c0,0.9,0,1.9,0,2.8c0,0.2-0.4,0.6-0.7,0.6c-0.6,0.1-1.2,0-1.9,0
		C31.5,21.9,28,21,25.4,23z M32,16.2c-0.4-1.4-0.7-2.9-1.1-4.2c-0.1-0.2-0.4-0.5-0.6-0.5c-1.5,0-3,0-4.4,0c0,1.7,0,3.2,0,4.8
		C27.9,16.2,29.9,16.2,32,16.2z"/>
	<path class="st0" d="M13.6,26c0,1.7-1.3,3.1-3,3.1c-1.6,0-3-1.3-3-3c0-1.7,1.3-3,3-3.1C12.2,23.1,13.6,24.4,13.6,26z M11.9,26.1
		c0-0.7-0.6-1.3-1.3-1.3c-0.7,0-1.3,0.6-1.3,1.3c0,0.7,0.6,1.3,1.3,1.3C11.3,27.4,11.9,26.8,11.9,26.1z"/>
	<path class="st0" d="M25.2,26.1c0-1.7,1.3-3,3-3c1.7,0,3,1.3,2.9,3c0,1.7-1.4,3-3,3C26.5,29.1,25.2,27.7,25.2,26.1z M29.5,26
		c0-0.7-0.6-1.3-1.3-1.2c-0.7,0-1.2,0.6-1.2,1.3c0,0.7,0.6,1.3,1.3,1.2C29,27.4,29.5,26.8,29.5,26z"/>
</g>
</svg>
