<svg xmlns="http://www.w3.org/2000/svg" width="30" height="30" viewBox="0 0 30 30">
    <g fill="none" fill-rule="nonzero">
        <path fill="#E7ECED" d="M10.536 23.52L6.06 25.961c-.263.144-.499.32-.718.511A14.93 14.93 0 0 0 15 30c3.653 0 7-1.308 9.602-3.478a3.97 3.97 0 0 0-.789-.528l-4.792-2.396a1.828 1.828 0 0 1-1.01-1.635v-1.88c.134-.154.288-.35.453-.584a11.028 11.028 0 0 0 1.49-3.002 1.505 1.505 0 0 0 1.067-1.432v-2.007c0-.442-.196-.836-.502-1.112V9.044s.596-4.515-5.518-4.515c-6.115 0-5.52 4.515-5.52 4.515v2.902c-.305.276-.5.67-.5 1.112v2.007c0 .529.277.994.693 1.263.502 2.183 1.815 3.754 1.815 3.754v1.834a1.83 1.83 0 0 1-.953 1.604z"/>
        <path fill="#556080" d="M15.256.002C6.974-.139.144 6.461.002 14.744c-.08 4.696 2.013 8.917 5.346 11.724.218-.19.452-.365.711-.506l4.476-2.441c.587-.32.953-.936.953-1.605v-1.834s-1.314-1.571-1.815-3.755a1.505 1.505 0 0 1-.694-1.262v-2.008c0-.441.196-.836.502-1.112V9.044s-.596-4.516 5.518-4.516c6.115 0 5.52 4.516 5.52 4.516v2.901c.305.276.5.67.5 1.112v2.008c0 .674-.452 1.242-1.067 1.432a11.028 11.028 0 0 1-1.49 3.002c-.164.233-.318.43-.453.583v1.88c0 .693.391 1.326 1.01 1.635l4.793 2.396c.288.144.547.325.787.528a14.961 14.961 0 0 0 5.398-11.265C30.139 6.974 23.54.144 15.257.002z"/>
    </g>
</svg>
