<?xml version="1.0" encoding="UTF-8"?>
<svg width="39px" height="24px" viewBox="0 0 39 24" version="1.1" xmlns="http://www.w3.org/2000/svg" xmlns:xlink="http://www.w3.org/1999/xlink">
    <!-- Generator: Sketch 55.2 (78181) - https://sketchapp.com -->
    <title>visa</title>
    <desc>Created with Sketch.</desc>
    <g id="05-cart-&amp;-payment" stroke="none" stroke-width="1" fill="none" fill-rule="evenodd">
        <g id="05-11-00-checkout-pickup" transform="translate(-669.000000, -2357.000000)">
            <g id="payment" transform="translate(135.000000, 2125.000000)">
                <g id="active-contetn" transform="translate(273.000000, 87.000000)">
                    <g id="cards" transform="translate(214.000000, 145.000000)">
                        <g id="visa" transform="translate(47.000000, 0.000000)">
                            <path d="M21.7874077,11.8688188 C22.7976954,11.3864154 23.1370287,11.0771096 23.1331726,10.6457842 C23.1254605,9.98555356 22.3272561,9.6942197 21.5801444,9.68286903 C20.2767961,9.66300536 19.5190803,10.0281186 18.916571,10.3043182 L18.4470957,8.14863686 C19.0515331,7.8752749 20.1707545,7.63691084 21.3314286,7.62650605 C24.055735,7.62650605 25.8381987,8.9460214 25.8478389,10.9919796 C25.8584431,13.5884453 22.1874739,13.7322204 22.2125383,14.8928264 C22.2212144,15.2446971 22.5634398,15.6202151 23.3134434,15.7157499 C23.6845892,15.7639903 24.7093372,15.80088 25.8709753,15.2759115 L26.3269544,17.361597 C25.7022726,17.5848269 24.8992481,17.7985978 23.8995646,17.7985978 C21.3352846,17.7985978 19.5316125,16.4611106 19.5171523,14.546631 C19.498836,13.129689 20.8041124,12.3389257 21.7874077,11.8688188 Z M29.6046054,16.8971655 L25.7128768,7.77974009 L28.4352552,7.77974009 L28.9770316,9.24870592 L32.3038474,9.24870592 L32.6181163,7.77974009 L35.0175497,7.77974009 L32.9237091,17.6188789 L30.7084026,17.6188789 C30.2109708,17.6188789 29.7916243,17.3341662 29.6046054,16.8971655 Z M31.8748607,11.2662874 L29.7231792,11.2662874 L31.0891885,14.9609304 L31.8748607,11.2662874 Z M14.0704675,7.77974009 L16.6646319,7.77974009 L18.8095653,17.6188789 L16.2163649,17.6188789 L14.0704675,7.77974009 Z M9.67841512,10.9219838 L8.58618611,16.6162364 C8.45797212,17.2518739 7.95186424,17.6188789 7.38984349,17.6188789 L2.97561875,17.6188789 L2.91392179,17.3332204 C3.8200959,17.140259 4.84966393,16.8290614 5.47338165,16.4961085 C5.85513159,16.2927423 5.96406529,16.1149152 6.08938724,15.6315658 L8.15816345,7.77974009 L10.8998221,7.77974009 L15.1029276,17.6188789 L12.3786212,17.6188789 L9.67841512,10.9219838 Z" id="path10273" fill="#1B1D74" transform="translate(18.965736, 12.712552) scale(-1, 1) rotate(-180.000000) translate(-18.965736, -12.712552) "></path>
                            <rect id="Rectangle-Copy-2" stroke="#D5D7DC" stroke-width="0.75" fill-rule="nonzero" x="0.375" y="0.375" width="38.25" height="23.25" rx="1.5"></rect>
                        </g>
                    </g>
                </g>
            </g>
        </g>
    </g>
</svg>